<?xml version="1.0" encoding="utf-8"?>
<!-- Generator: Adobe Illustrator 25.2.1, SVG Export Plug-In . SVG Version: 6.00 Build 0)  -->
<svg version="1.1" id="Layer_1" xmlns="http://www.w3.org/2000/svg" xmlns:xlink="http://www.w3.org/1999/xlink" x="0px" y="0px"
	 viewBox="0 0 80 16" style="enable-background:new 0 0 80 16;" xml:space="preserve">
<style type="text/css">
	.st0{fill:#A9BA9D;stroke:#E3E1E4;stroke-miterlimit:10;}
</style>
<g>
	<path class="st0" d="M13.26,6h4.22c0-0.07,0-0.14,0-0.21c0-2.21,0.18-3.66,0.18-3.66h-6.41l1.71,1.39C13.07,4.2,13.18,5,13.26,6z"
		/>
	<path class="st0" d="M17.48,11.4c0,0,0-0.58,0-1.4h-4.11c0.01,0.84,0,1.6-0.04,2.14l-2.21,1.4l3.98-0.29
		c1.65,0.28,2.93,0.41,5.17,0.41c3.24,0,5.55-0.92,5.73-2.83c-1.1,0.92-2.9,1.13-4.66,1.13C19.84,11.98,18.34,11.69,17.48,11.4z"/>
</g>
<g>
	<path class="st0" d="M28.43,6h4.25V4.08c0.61-0.18,1.49-0.34,2.43-0.34c0.92,0,1.78,0.16,2.39,0.45L37.56,6h4.29
		c0.05-0.93,0.11-1.69,0.16-1.9c0.5-0.16,1.4-0.36,2.45-0.36c0.97,0,1.78,0.23,2.3,0.5V6h4.27c0.1-1.24,0.27-2.46,0.46-3.25
		c-1.39-0.41-3.06-0.76-4.86-0.76c-1.8,0-3.49,0.47-4.55,0.88c-1.84-0.67-3.48-0.88-5.28-0.88c-1.4,0-3.13,0.45-4.12,0.81V2.14H26.4
		l1.75,1.39C28.25,4.15,28.36,5,28.43,6z"/>
	<path class="st0" d="M28.55,10c0.01,0.88,0.01,1.65-0.02,2.14l-2.21,1.4h6.37V10H28.55z"/>
	<path class="st0" d="M50.9,10h-4.14v3.54h6.36l-2.23-1.4C50.88,11.91,50.88,11.03,50.9,10z"/>
	<path class="st0" d="M41.73,10h-4.09l0.09,3.54h6.12l-2.11-1.4C41.72,11.69,41.71,10.9,41.73,10z"/>
</g>
<g>
	<path class="st0" d="M69.43,10h-4.36v2c-0.97,0.18-2.27,0.22-3.73,0.14c-1.6-0.07-3.19-0.38-4.61-0.99l-0.97-1.08
		c-0.04,0.49-0.23,2.65-0.29,3.06c2.27,0.5,4.61,0.65,6.68,0.65c1.98,0,5.53-0.31,7.44-0.92c-0.07-0.38-0.14-1.37-0.16-2.5
		C69.43,10.23,69.43,10.12,69.43,10z"/>
	<path class="st0" d="M55.76,6h4.23V3.69c1.21-0.14,2.56-0.14,3.66-0.09c1.6,0.07,3.01,0.34,4.32,0.79l1.21,1.08
		c0-0.79,0.05-2.21,0.14-2.99c-1.87-0.41-4.54-0.58-6.43-0.58c-2.5,0-5.31,0.36-7.51,0.86c0.07,0.29,0.22,1.31,0.34,2.66
		C55.74,5.61,55.75,5.81,55.76,6z"/>
</g>
<g>
	<path d="M6.52,8.75c-0.44,0-0.89-0.05-1.15-0.09L4.49,8.73l0.49-0.31C5,8.22,5,7.9,4.98,7.57C4.97,7.2,4.94,6.94,4.9,6.72
		L4.52,6.42h1.42c0,0-0.04,0.32-0.04,0.81c0,0.46,0,1.02,0,1.02c0.19,0.06,0.52,0.13,0.86,0.13c0.39,0,0.79-0.05,1.04-0.25
		C7.75,8.55,7.24,8.75,6.52,8.75z"/>
	<path d="M10.97,7.91c-0.02,0.28-0.03,0.54-0.02,0.71c-0.34,0.1-1,0.16-1.39,0.16C9.14,8.79,8.62,8.74,8.15,8.65
		c0.02-0.16,0.01-0.46,0-0.75C8.13,7.64,8.09,7.38,8.06,7.22c0.36-0.08,1.1-0.16,1.52-0.16c0.42,0,1.06,0.05,1.49,0.15
		C11.03,7.39,10.99,7.64,10.97,7.91z M10.12,7.47C9.98,7.41,9.79,7.36,9.57,7.35C9.32,7.34,9.15,7.37,9,7.39v0.99
		C9.15,8.44,9.36,8.49,9.58,8.5c0.24,0,0.4-0.02,0.54-0.05V7.47z"/>
	<path d="M14.5,8.26c-0.02,0.32-0.02,0.73,0,0.99c-0.36,0.1-0.83,0.2-1.41,0.2c-0.56,0-1.29-0.09-1.39-0.58
		c0.35,0.22,0.76,0.26,1.2,0.26c0.29,0,0.54-0.05,0.77-0.12V8.66c-0.19,0.05-0.48,0.1-0.8,0.1c-0.38,0-0.8-0.04-1.16-0.13
		c0.01-0.18,0.01-0.42-0.01-0.72c-0.01-0.26-0.06-0.54-0.09-0.69c0.41-0.08,0.99-0.16,1.54-0.16c0.53,0,1.08,0.06,1.46,0.15
		C14.57,7.42,14.52,7.83,14.5,8.26z M13.67,7.48c-0.11-0.06-0.34-0.12-0.55-0.13c-0.22-0.01-0.41,0.02-0.56,0.04v0.95
		c0.12,0.06,0.36,0.12,0.58,0.13c0.22,0,0.4-0.03,0.53-0.06V7.48z"/>
	<path d="M17.11,8.73L17.05,8.6c-0.19,0.08-0.47,0.15-0.79,0.16c-0.36,0-0.68-0.03-0.99-0.11c0-0.18,0-0.53-0.04-0.7
		c0.26-0.08,0.68-0.16,0.98-0.17c0.32,0,0.54,0.01,0.81,0.04V7.46c-0.17-0.06-0.43-0.1-0.65-0.1c-0.29,0-0.53,0.02-0.76,0.07
		l-0.26,0.25l-0.06-0.48c0.36-0.09,0.85-0.16,1.24-0.16c0.42,0,0.94,0.04,1.44,0.13c-0.04,0.2-0.08,0.46-0.1,0.72
		c-0.02,0.2-0.02,0.42-0.02,0.54l0.33,0.27H17.11z M17.02,8.04c-0.12-0.02-0.29-0.03-0.46-0.03c-0.17,0.01-0.34,0.03-0.44,0.07v0.3
		c0.11,0.04,0.27,0.06,0.43,0.06c0.18,0,0.29-0.02,0.46-0.06V8.04z"/>
	<path d="M20.57,8.73V7.5C20.45,7.44,20.3,7.4,20.11,7.4c-0.16,0-0.32,0.02-0.45,0.06v1.26h-1.19l0.36-0.27
		c0.01-0.14,0.01-0.32-0.02-0.58c-0.02-0.22-0.04-0.39-0.07-0.51l-0.28-0.26h1.2v0.1c0.19-0.06,0.55-0.12,0.86-0.12
		c0.4,0,0.74,0.04,1,0.12c-0.04,0.18-0.07,0.37-0.1,0.67C21.4,8.13,21.4,8.39,21.4,8.46l0.36,0.27H20.57z"/>
	<path d="M25.13,8.78c-0.46,0-0.98-0.03-1.48-0.14c0.01-0.09,0.06-0.57,0.06-0.68l0.22,0.24c0.32,0.14,0.67,0.2,1.02,0.22
		c0.32,0.02,0.61,0.01,0.83-0.03V7.82c-0.35-0.05-1.36-0.12-2.06-0.1c0-0.07,0-0.35-0.02-0.57c-0.03-0.3-0.06-0.53-0.08-0.59
		c0.49-0.11,1.11-0.19,1.67-0.19c0.42,0,1.01,0.04,1.43,0.13c-0.02,0.17-0.03,0.49-0.03,0.66l-0.27-0.24
		c-0.29-0.1-0.6-0.16-0.96-0.18c-0.24-0.01-0.54-0.01-0.81,0.02V7.3c0.52,0.06,1.41,0.13,2.12,0.11c-0.02,0.17-0.02,0.39-0.02,0.62
		c0,0.25,0.02,0.47,0.04,0.56C26.36,8.71,25.57,8.78,25.13,8.78z"/>
	<path d="M31.22,8.73V7.5c-0.13-0.07-0.3-0.1-0.48-0.1c-0.19,0-0.34,0.03-0.46,0.07c-0.01,0.05-0.03,0.23-0.04,0.41
		c-0.02,0.26-0.02,0.51-0.02,0.58l0.34,0.27h-1.16L29.39,7.5c-0.11-0.06-0.28-0.1-0.47-0.1c-0.18,0-0.32,0.03-0.44,0.07v1.26h-1.19
		l0.36-0.27c0.01-0.14,0.01-0.34-0.02-0.58c-0.02-0.22-0.04-0.39-0.07-0.51l-0.28-0.26h1.2v0.11c0.2-0.06,0.5-0.13,0.83-0.13
		c0.4,0,0.7,0.04,1,0.13c0.19-0.06,0.54-0.13,0.85-0.13c0.39,0,0.75,0.05,1,0.11c-0.04,0.18-0.06,0.33-0.1,0.68
		c-0.02,0.25-0.02,0.52-0.02,0.58l0.36,0.27H31.22z"/>
	<path d="M33.01,8.73c0.01-0.17,0.02-0.37,0.02-0.66c0-0.21-0.02-0.57-0.06-0.7L32.7,7.11h1.23c-0.02,0.18-0.04,0.46-0.05,0.68
		c-0.01,0.31-0.01,0.42,0,0.68l0.35,0.27H33.01z M33.4,6.99l-0.58-0.58h1.15L33.4,6.99z"/>
	<path d="M34.79,8.73c0.01-0.17,0.02-0.63,0.02-0.99c0-0.38-0.03-0.93-0.06-1.06l-0.27-0.26h1.2c-0.02,0.18-0.04,0.69-0.05,1.03
		c0,0.42,0,0.76,0,1.01l0.36,0.27H34.79z"/>
	<path d="M37.91,8.78c-0.36,0.01-0.9-0.03-1.37-0.13c0.02-0.18,0.03-0.43,0.01-0.7l-0.28-0.11l0.27-0.05
		c-0.02-0.23-0.04-0.45-0.09-0.6c0.38-0.08,0.9-0.14,1.38-0.14c0.43,0,0.98,0.05,1.28,0.12c-0.03,0.16-0.06,0.57-0.05,0.82
		c-0.26,0.04-0.58,0.06-0.96,0.06c-0.3,0-0.56-0.02-0.7-0.04v0.34c0.17,0.08,0.46,0.12,0.72,0.13c0.31,0.01,0.77-0.02,1.02-0.24
		C39.13,8.71,38.4,8.77,37.91,8.78z M38.31,7.44c-0.14-0.05-0.28-0.08-0.47-0.08c-0.17-0.01-0.33,0-0.43,0.02V7.8
		c0.13,0.02,0.29,0.02,0.44,0.02c0.18,0,0.38-0.04,0.47-0.08V7.44z"/>
	<path d="M42.44,8.18c-0.02,0.34-0.02,0.88,0,1.08c-0.3,0.1-0.74,0.2-1.31,0.2c-0.6,0-1.21-0.12-1.29-0.58
		c0.25,0.2,0.63,0.26,1.06,0.26c0.28,0,0.55-0.06,0.72-0.12V8.62c-0.18,0.09-0.48,0.14-0.78,0.14c-0.39,0-0.74-0.05-0.98-0.12
		c0-0.15,0.01-0.41-0.01-0.67c-0.01-0.29-0.05-0.52-0.07-0.6l-0.33-0.26h1.25v1.22c0.12,0.06,0.3,0.11,0.49,0.11
		c0.19,0,0.33-0.02,0.44-0.06V7.37l-0.3-0.26h1.24C42.52,7.27,42.46,7.78,42.44,8.18z"/>
	<path d="M49.87,6.72c-0.02,0.11-0.09,0.35-0.16,0.83c-0.08,0.57-0.1,0.87-0.1,0.99c0.05,0.03,0.24,0.28,0.24,0.28
		C49.45,8.68,49,8.58,48.42,8.58c-0.42,0-0.91,0.05-1.13,0.15c-0.24-0.1-0.7-0.16-1.11-0.15c-0.58,0.01-1.13,0.12-1.46,0.23
		c0,0,0.19-0.22,0.24-0.26c0-0.13-0.02-0.45-0.1-1C44.8,7.1,44.73,6.82,44.7,6.72l-0.37-0.31h1.36l0.14,1.93
		c0.11-0.04,0.3-0.08,0.49-0.11c0.17-0.03,0.4-0.05,0.53-0.05l-0.05-1.46l-0.32-0.31h1.62l-0.32,0.31l-0.05,1.46
		c0.14,0,0.35,0.02,0.54,0.04c0.2,0.03,0.38,0.08,0.48,0.12l0.15-1.93h1.36L49.87,6.72z"/>
	<path d="M52,8.78c-0.36,0.01-0.9-0.03-1.37-0.13c0.02-0.18,0.03-0.43,0.01-0.7l-0.28-0.11l0.27-0.05c-0.02-0.23-0.04-0.45-0.09-0.6
		c0.38-0.08,0.9-0.14,1.38-0.14c0.43,0,0.98,0.05,1.28,0.12c-0.03,0.16-0.06,0.57-0.05,0.82c-0.26,0.04-0.58,0.06-0.96,0.06
		c-0.3,0-0.56-0.02-0.7-0.04v0.34c0.17,0.08,0.46,0.12,0.72,0.13c0.31,0.01,0.77-0.02,1.02-0.24C53.22,8.71,52.49,8.77,52,8.78z
		 M52.39,7.44c-0.14-0.05-0.28-0.08-0.47-0.08c-0.17-0.01-0.33,0-0.43,0.02V7.8c0.13,0.02,0.29,0.02,0.44,0.02
		c0.18,0,0.38-0.04,0.47-0.08V7.44z"/>
	<path d="M56.69,7.91c-0.02,0.28-0.03,0.52,0,0.7c-0.39,0.1-0.94,0.16-1.4,0.16c-0.43,0.01-0.96-0.04-1.41-0.13
		c0.02-0.19,0.03-0.68,0.01-0.98c-0.01-0.25-0.05-0.78-0.11-0.98l-0.3-0.27h1.24v0.76c0.16-0.04,0.5-0.1,0.78-0.1
		c0.48,0,0.86,0.04,1.28,0.14C56.74,7.42,56.71,7.65,56.69,7.91z M55.82,7.5c-0.11-0.06-0.34-0.1-0.57-0.11
		c-0.22,0-0.41,0.03-0.54,0.06v0.9c0.12,0.07,0.36,0.13,0.54,0.14c0.19,0.01,0.37,0,0.57-0.04V7.5z"/>
	<path d="M62.61,7.55c-0.02,0.32-0.01,0.72-0.01,0.91c-0.44,0.18-1.2,0.32-1.88,0.32c-0.69,0.01-1.57-0.09-2.03-0.18l0.38-0.32
		c0-0.11,0-0.48,0-0.68c-0.01-0.29-0.04-0.7-0.08-0.89l-0.34-0.31h1.37v0.12c0.23-0.06,0.75-0.12,1.16-0.12
		c0.56,0,1.13,0.08,1.54,0.24C62.68,6.84,62.63,7.23,62.61,7.55z M61.65,6.94c-0.2-0.08-0.52-0.14-0.88-0.15
		c-0.3-0.01-0.62,0.02-0.76,0.04v1.45c0.2,0.07,0.5,0.12,0.79,0.14c0.33,0.01,0.68-0.03,0.84-0.08V6.94z"/>
	<path d="M64.83,8.78c-0.36,0.01-0.9-0.03-1.37-0.13c0.02-0.18,0.03-0.43,0.01-0.7l-0.28-0.11l0.27-0.05
		c-0.02-0.23-0.04-0.45-0.09-0.6c0.38-0.08,0.9-0.14,1.38-0.14c0.43,0,0.98,0.05,1.28,0.12C66,7.34,65.97,7.74,65.98,7.99
		c-0.26,0.04-0.58,0.06-0.96,0.06c-0.3,0-0.56-0.02-0.7-0.04v0.34c0.17,0.08,0.46,0.12,0.72,0.13c0.31,0.01,0.77-0.02,1.02-0.24
		C66.05,8.71,65.31,8.77,64.83,8.78z M65.22,7.44c-0.14-0.05-0.28-0.08-0.47-0.08c-0.17-0.01-0.33,0-0.43,0.02V7.8
		c0.13,0.02,0.29,0.02,0.44,0.02c0.18,0,0.38-0.04,0.47-0.08V7.44z"/>
	<path d="M67.85,8.78c-0.36,0-0.87-0.04-1.22-0.11c0.02-0.13,0.04-0.35,0.05-0.5l0.21,0.18c0.16,0.08,0.41,0.13,0.65,0.14
		c0.19,0.01,0.5,0,0.65-0.03V8.09c-0.35-0.04-1.11-0.07-1.52-0.04c0-0.1,0-0.26,0-0.42c-0.02-0.17-0.04-0.35-0.06-0.43
		c0.35-0.08,0.91-0.14,1.32-0.14c0.36,0,0.81,0.03,1.15,0.11c-0.02,0.12-0.04,0.4-0.04,0.52l-0.23-0.2
		c-0.14-0.06-0.38-0.11-0.59-0.13c-0.2-0.02-0.45,0-0.61,0.01v0.36c0.27,0.04,1.04,0.08,1.53,0.08c-0.02,0.13-0.02,0.28-0.02,0.43
		c0,0.17,0.01,0.28,0.03,0.4C68.83,8.73,68.17,8.78,67.85,8.78z"/>
	<path d="M69.96,8.73c0.01-0.17,0.02-0.37,0.02-0.66c0-0.21-0.02-0.57-0.06-0.7l-0.27-0.26h1.23c-0.02,0.18-0.04,0.46-0.05,0.68
		c-0.01,0.31-0.01,0.42,0,0.68l0.35,0.27H69.96z M70.35,6.99l-0.58-0.58h1.15L70.35,6.99z"/>
	<path d="M74.51,8.26c-0.02,0.32-0.02,0.73,0,0.99c-0.36,0.1-0.83,0.2-1.41,0.2c-0.56,0-1.29-0.09-1.39-0.58
		c0.35,0.22,0.76,0.26,1.2,0.26c0.29,0,0.54-0.05,0.77-0.12V8.66c-0.19,0.05-0.48,0.1-0.79,0.1c-0.38,0-0.8-0.04-1.16-0.13
		c0.01-0.18,0.01-0.42-0.01-0.72c-0.01-0.26-0.06-0.54-0.09-0.69c0.41-0.08,0.99-0.16,1.54-0.16c0.53,0,1.08,0.06,1.46,0.15
		C74.58,7.42,74.54,7.83,74.51,8.26z M73.69,7.48c-0.11-0.06-0.34-0.12-0.55-0.13c-0.22-0.01-0.41,0.02-0.56,0.04v0.95
		c0.12,0.06,0.36,0.12,0.58,0.13c0.22,0,0.4-0.03,0.53-0.06V7.48z"/>
	<path d="M77.16,8.73V7.5c-0.12-0.06-0.27-0.09-0.46-0.09c-0.16,0-0.32,0.02-0.45,0.06v1.26h-1.19l0.36-0.27
		c0.01-0.14,0.01-0.32-0.02-0.58c-0.02-0.22-0.04-0.39-0.07-0.51l-0.28-0.26h1.2v0.1c0.19-0.06,0.55-0.12,0.86-0.12
		c0.4,0,0.74,0.04,1,0.12c-0.04,0.18-0.07,0.37-0.1,0.67c-0.02,0.25-0.02,0.52-0.02,0.58l0.36,0.27H77.16z"/>
</g>
</svg>
