<?xml version="1.0" encoding="utf-8"?>
<!-- Generator: Adobe Illustrator 25.2.1, SVG Export Plug-In . SVG Version: 6.00 Build 0)  -->
<svg version="1.1" id="Layer_1" xmlns="http://www.w3.org/2000/svg" xmlns:xlink="http://www.w3.org/1999/xlink" x="0px" y="0px"
	 viewBox="0 0 943 171" style="enable-background:new 0 0 943 171;" xml:space="preserve">
<style type="text/css">
	.st0{fill:#A9BA9D;stroke:#E3E1E4;stroke-width:11;stroke-miterlimit:10;}
</style>
<g>
	<path class="st0" d="M115.69,63.78h53.29c0-0.88,0-1.77,0-2.65c0-27.91,2.27-46.22,2.27-46.22H90.31l21.59,17.55
		C113.29,41.05,114.68,51.15,115.69,63.78z"/>
	<path class="st0" d="M168.98,131.97c0,0,0-7.32,0-17.68h-51.9c0.13,10.61,0,20.21-0.51,27.03L88.67,159l50.26-3.66
		c20.84,3.54,37,5.18,65.29,5.18c40.92,0,70.09-11.62,72.36-35.74c-13.89,11.62-36.62,14.27-58.85,14.27
		C198.79,139.3,179.84,135.63,168.98,131.97z"/>
</g>
<g>
	<path class="st0" d="M307.27,63.78h53.67V39.53c7.7-2.27,18.82-4.29,30.69-4.29c11.62,0,22.48,2.02,30.18,5.68l0.76,22.86h54.18
		c0.63-11.74,1.39-21.34,2.02-23.99c6.31-2.02,17.68-4.55,30.94-4.55c12.25,0,22.48,2.9,29.05,6.31v22.23h53.92
		c1.26-15.66,3.41-31.07,5.81-41.04c-17.55-5.18-38.64-9.6-61.37-9.6c-22.73,0-44.07,5.94-57.46,11.11
		c-23.24-8.46-43.95-11.11-66.68-11.11c-17.68,0-39.53,5.68-52.03,10.23v-8.33h-79.31l22.1,17.55
		C304.99,40.41,306.38,51.15,307.27,63.78z"/>
	<path class="st0" d="M308.78,114.29c0.13,11.11,0.13,20.84-0.25,27.03L280.62,159h80.44v-44.7H308.78z"/>
	<path class="st0" d="M591.03,114.29h-52.28V159h80.32l-28.16-17.68C590.78,138.41,590.78,127.3,591.03,114.29z"/>
	<path class="st0" d="M475.23,114.29h-51.65l1.14,44.7H502l-26.65-17.68C475.1,135.63,474.97,125.66,475.23,114.29z"/>
</g>
<g>
	<path class="st0" d="M825.04,114.29h-55.06v25.26c-12.25,2.27-28.67,2.78-47.1,1.77c-20.21-0.88-40.29-4.8-58.22-12.5l-12.25-13.64
		c-0.51,6.19-2.9,33.47-3.66,38.64c28.67,6.31,58.22,8.21,84.36,8.21c25,0,69.84-3.91,93.96-11.62c-0.88-4.8-1.77-17.3-2.02-31.57
		C825.04,117.2,825.04,115.81,825.04,114.29z"/>
	<path class="st0" d="M652.4,63.78h53.42V34.61c15.28-1.77,32.33-1.77,46.22-1.14c20.21,0.88,38.01,4.29,54.56,9.98l15.28,13.64
		c0-9.98,0.63-27.91,1.77-37.76c-23.62-5.18-57.33-7.32-81.2-7.32c-31.57,0-67.06,4.55-94.84,10.86c0.88,3.66,2.78,16.54,4.29,33.59
		C652.15,58.85,652.28,61.38,652.4,63.78z"/>
</g>
<g>
	<path d="M30.58,98.51c-5.56,0-11.24-0.63-14.52-1.14L4.94,98.25l6.19-3.91c0.25-2.53,0.25-6.57,0-10.73
		c-0.13-4.67-0.51-7.96-1.01-10.73l-4.8-3.79h17.93c0,0-0.51,4.04-0.51,10.23c0,5.81,0,12.88,0,12.88c2.4,0.76,6.57,1.64,10.86,1.64
		c4.93,0,9.98-0.63,13.13-3.16C46.11,95.98,39.67,98.51,30.58,98.51z"/>
	<path d="M86.77,87.9c-0.25,3.54-0.38,6.82-0.25,8.97c-4.29,1.26-12.63,2.02-17.55,2.02c-5.3,0.13-11.87-0.51-17.81-1.64
		c0.25-2.02,0.13-5.81,0-9.47c-0.25-3.28-0.76-6.57-1.14-8.59c4.55-1.01,13.89-2.02,19.2-2.02s13.39,0.63,18.82,1.89
		C87.53,81.33,87.03,84.49,86.77,87.9z M76.04,82.34c-1.77-0.76-4.17-1.39-6.95-1.52c-3.16-0.13-5.3,0.25-7.2,0.51v12.5
		c1.89,0.76,4.55,1.39,7.32,1.52c3.03,0,5.05-0.25,6.82-0.63V82.34z"/>
	<path d="M131.35,92.32c-0.25,4.04-0.25,9.22,0,12.5c-4.55,1.26-10.48,2.53-17.81,2.53c-7.07,0-16.29-1.14-17.55-7.32
		c4.42,2.78,9.6,3.28,15.15,3.28c3.66,0,6.82-0.63,9.72-1.52v-4.42c-2.4,0.63-6.06,1.26-10.1,1.26c-4.8,0-10.1-0.51-14.65-1.64
		c0.13-2.27,0.13-5.3-0.13-9.09c-0.13-3.28-0.76-6.82-1.14-8.71c5.18-1.01,12.5-2.02,19.45-2.02c6.69,0,13.64,0.76,18.44,1.89
		C132.24,81.71,131.6,86.89,131.35,92.32z M120.87,82.47c-1.39-0.76-4.29-1.52-6.95-1.64c-2.78-0.13-5.18,0.25-7.07,0.51v12
		c1.52,0.76,4.55,1.52,7.32,1.64c2.78,0,5.05-0.38,6.69-0.76C120.87,94.21,120.87,82.47,120.87,82.47z"/>
	<path d="M164.31,98.25l-0.76-1.64c-2.4,1.01-5.94,1.89-9.98,2.02c-4.55,0-8.59-0.38-12.5-1.39c0-2.27,0-6.69-0.51-8.84
		c3.28-1.01,8.59-2.02,12.38-2.15c4.04,0,6.82,0.13,10.23,0.51v-4.55c-2.15-0.76-5.43-1.26-8.21-1.26c-3.66,0-6.69,0.25-9.6,0.88
		l-3.28,3.16l-0.76-6.06c4.55-1.14,10.73-2.02,15.66-2.02c5.3,0,11.87,0.51,18.19,1.64c-0.51,2.53-1.01,5.81-1.26,9.09
		c-0.25,2.53-0.25,5.3-0.25,6.82l4.17,3.41h-13.51V98.25z M163.18,89.54c-1.52-0.25-3.66-0.38-5.81-0.38
		c-2.15,0.13-4.29,0.38-5.56,0.88v3.79c1.39,0.51,3.41,0.76,5.43,0.76c2.27,0,3.66-0.25,5.81-0.76v-4.29H163.18z"/>
	<path d="M208.01,98.25V82.72c-1.52-0.76-3.41-1.26-5.81-1.26c-2.02,0-4.04,0.25-5.68,0.76v15.91h-15.03l4.55-3.41
		c0.13-1.77,0.13-4.04-0.25-7.32c-0.25-2.78-0.51-4.93-0.88-6.44l-3.54-3.28h15.15v1.26c2.4-0.76,6.95-1.52,10.86-1.52
		c5.05,0,9.35,0.51,12.63,1.52c-0.51,2.27-0.88,4.67-1.26,8.46c-0.25,3.28-0.25,6.57-0.25,7.45l4.55,3.41
		C223.03,98.25,208.01,98.25,208.01,98.25z"/>
	<path d="M265.59,98.88c-5.81,0-12.38-0.38-18.69-1.77c0.13-1.14,0.76-7.2,0.76-8.59l2.78,3.03c4.04,1.77,8.46,2.53,12.88,2.78
		c4.04,0.25,7.7,0.13,10.48-0.38v-7.2c-4.42-0.63-17.17-1.52-26.01-1.26c0-0.88,0-4.42-0.25-7.2c-0.38-3.79-0.76-6.69-1.01-7.45
		c6.19-1.39,14.02-2.4,21.09-2.4c5.3,0,12.75,0.51,18.06,1.64c-0.25,2.15-0.38,6.19-0.38,8.33l-3.41-3.03
		c-3.66-1.26-7.58-2.02-12.12-2.27c-3.03-0.13-6.82-0.13-10.23,0.25v6.82c6.57,0.76,17.81,1.64,26.77,1.39
		c-0.25,2.15-0.25,4.93-0.25,7.83c0,3.16,0.25,5.94,0.51,7.07C281.13,98,271.15,98.88,265.59,98.88z"/>
	<path d="M342.5,98.25V82.72c-1.64-0.88-3.79-1.26-6.06-1.26c-2.4,0-4.29,0.38-5.81,0.88c-0.13,0.63-0.38,2.9-0.51,5.18
		c-0.25,3.28-0.25,6.44-0.25,7.32l4.29,3.41h-14.65l-0.13-15.53c-1.39-0.76-3.54-1.26-5.94-1.26c-2.27,0-4.04,0.38-5.56,0.88v15.91
		h-15.03l4.55-3.41c0.13-1.77,0.13-4.29-0.25-7.32c-0.25-2.78-0.51-4.93-0.88-6.44l-3.54-3.28h15.15v1.39
		c2.53-0.76,6.31-1.64,10.48-1.64c5.05,0,8.84,0.51,12.63,1.64c2.4-0.76,6.82-1.64,10.73-1.64c4.93,0,9.47,0.63,12.63,1.39
		c-0.51,2.27-0.76,4.17-1.26,8.59c-0.25,3.16-0.25,6.57-0.25,7.32l4.55,3.41C357.4,98.25,342.5,98.25,342.5,98.25z"/>
	<path d="M365.11,98.25c0.13-2.15,0.25-4.67,0.25-8.33c0-2.65-0.25-7.2-0.76-8.84l-3.41-3.28h15.53c-0.25,2.27-0.51,5.81-0.63,8.59
		c-0.13,3.91-0.13,5.3,0,8.59l4.42,3.41h-15.41V98.25z M370.03,76.28l-7.32-7.32h14.52L370.03,76.28z"/>
	<path d="M387.58,98.25c0.13-2.15,0.25-7.96,0.25-12.5c0-4.8-0.38-11.74-0.76-13.39l-3.41-3.28h15.15
		c-0.25,2.27-0.51,8.71-0.63,13.01c0,5.3,0,9.6,0,12.75l4.55,3.41C402.74,98.25,387.58,98.25,387.58,98.25z"/>
	<path d="M426.99,98.88c-4.55,0.13-11.37-0.38-17.3-1.64c0.25-2.27,0.38-5.43,0.13-8.84l-3.54-1.39l3.41-0.63
		c-0.25-2.9-0.51-5.68-1.14-7.58c4.8-1.01,11.37-1.77,17.43-1.77c5.43,0,12.38,0.63,16.16,1.52c-0.38,2.02-0.76,7.2-0.63,10.36
		c-3.28,0.51-7.32,0.76-12.12,0.76c-3.79,0-7.07-0.25-8.84-0.51v4.29c2.15,1.01,5.81,1.52,9.09,1.64c3.91,0.13,9.72-0.25,12.88-3.03
		C442.39,98,433.17,98.76,426.99,98.88z M432.04,81.96c-1.77-0.63-3.54-1.01-5.94-1.01c-2.15-0.13-4.17,0-5.43,0.25v5.3
		c1.64,0.25,3.66,0.25,5.56,0.25c2.27,0,4.8-0.51,5.94-1.01v-3.79H432.04z"/>
	<path d="M484.19,91.31c-0.25,4.29-0.25,11.11,0,13.64c-3.79,1.26-9.35,2.53-16.54,2.53c-7.58,0-15.28-1.52-16.29-7.32
		c3.16,2.53,7.96,3.28,13.39,3.28c3.54,0,6.95-0.76,9.09-1.52v-5.05c-2.27,1.14-6.06,1.77-9.85,1.77c-4.93,0-9.35-0.63-12.38-1.52
		c0-1.89,0.13-5.18-0.13-8.46c-0.13-3.66-0.63-6.57-0.88-7.58l-4.17-3.28h15.79V93.2c1.52,0.76,3.79,1.39,6.19,1.39
		c2.4,0,4.17-0.25,5.56-0.76V81.08l-3.79-3.28h15.66C485.2,79.82,484.44,86.26,484.19,91.31z"/>
	<path d="M578.02,72.87c-0.25,1.39-1.14,4.42-2.02,10.48c-1.01,7.2-1.26,10.99-1.26,12.5c0.63,0.38,3.03,3.54,3.03,3.54
		c-5.05-1.77-10.73-3.03-18.06-3.03c-5.3,0-11.49,0.63-14.27,1.89c-3.03-1.26-8.84-2.02-14.02-1.89c-7.32,0.13-14.27,1.52-18.44,2.9
		c0,0,2.4-2.78,3.03-3.28c0-1.64-0.25-5.68-1.26-12.63c-0.76-5.68-1.64-9.22-2.02-10.48l-4.67-3.91h17.17L527,93.33
		c1.39-0.51,3.79-1.01,6.19-1.39c2.15-0.38,5.05-0.63,6.69-0.63l-0.63-18.44l-4.04-3.91h20.46l-4.04,3.91L551,91.31
		c1.77,0,4.42,0.25,6.82,0.51c2.53,0.38,4.8,1.01,6.06,1.52l1.89-24.37h17.17L578.02,72.87z"/>
	<path d="M604.92,98.88c-4.55,0.13-11.37-0.38-17.3-1.64c0.25-2.27,0.38-5.43,0.13-8.84l-3.54-1.39l3.41-0.63
		c-0.25-2.9-0.51-5.68-1.14-7.58c4.8-1.01,11.37-1.77,17.43-1.77c5.43,0,12.38,0.63,16.16,1.52c-0.38,2.02-0.76,7.2-0.63,10.36
		c-3.28,0.51-7.32,0.76-12.12,0.76c-3.79,0-7.07-0.25-8.84-0.51v4.29c2.15,1.01,5.81,1.52,9.09,1.64c3.91,0.13,9.72-0.25,12.88-3.03
		C620.33,98,611.11,98.76,604.92,98.88z M609.85,81.96c-1.77-0.63-3.54-1.01-5.94-1.01c-2.15-0.13-4.17,0-5.43,0.25v5.3
		c1.64,0.25,3.66,0.25,5.56,0.25c2.27,0,4.8-0.51,5.94-1.01v-3.79H609.85z"/>
	<path d="M664.15,87.9c-0.25,3.54-0.38,6.57,0,8.84c-4.93,1.26-11.87,2.02-17.68,2.02c-5.43,0.13-12.12-0.51-17.81-1.64
		c0.25-2.4,0.38-8.59,0.13-12.38c-0.13-3.16-0.63-9.85-1.39-12.38l-3.79-3.41h15.66v9.6c2.02-0.51,6.31-1.26,9.85-1.26
		c6.06,0,10.86,0.51,16.16,1.77C664.78,81.71,664.4,84.61,664.15,87.9z M653.16,82.72c-1.39-0.76-4.29-1.26-7.2-1.39
		c-2.78,0-5.18,0.38-6.82,0.76v11.37c1.52,0.88,4.55,1.64,6.82,1.77c2.4,0.13,4.67,0,7.2-0.51V82.72z"/>
	<path d="M738.91,83.35c-0.25,4.04-0.13,9.09-0.13,11.49c-5.56,2.27-15.15,4.04-23.74,4.04c-8.71,0.13-19.83-1.14-25.64-2.27
		l4.8-4.04c0-1.39,0-6.06,0-8.59c-0.13-3.66-0.51-8.84-1.01-11.24l-4.29-3.91h17.3v1.52c2.9-0.76,9.47-1.52,14.65-1.52
		c7.07,0,14.27,1.01,19.45,3.03C739.79,74.38,739.16,79.31,738.91,83.35z M726.79,75.65c-2.53-1.01-6.57-1.77-11.11-1.89
		c-3.79-0.13-7.83,0.25-9.6,0.51v18.31c2.53,0.88,6.31,1.52,9.98,1.77c4.17,0.13,8.59-0.38,10.61-1.01V75.65H726.79z"/>
	<path d="M766.95,98.88c-4.55,0.13-11.37-0.38-17.3-1.64c0.25-2.27,0.38-5.43,0.13-8.84l-3.54-1.39l3.41-0.63
		c-0.25-2.9-0.51-5.68-1.14-7.58c4.8-1.01,11.37-1.77,17.43-1.77c5.43,0,12.38,0.63,16.16,1.52c-0.38,2.15-0.76,7.2-0.63,10.36
		c-3.28,0.51-7.32,0.76-12.12,0.76c-3.79,0-7.07-0.25-8.84-0.51v4.29c2.15,1.01,5.81,1.52,9.09,1.64c3.91,0.13,9.72-0.25,12.88-3.03
		C782.35,98,773.01,98.76,766.95,98.88z M771.87,81.96c-1.77-0.63-3.54-1.01-5.94-1.01c-2.15-0.13-4.17,0-5.43,0.25v5.3
		c1.64,0.25,3.66,0.25,5.56,0.25c2.27,0,4.8-0.51,5.94-1.01v-3.79H771.87z"/>
	<path d="M805.08,98.88c-4.55,0-10.99-0.51-15.41-1.39c0.25-1.64,0.51-4.42,0.63-6.31l2.65,2.27c2.02,1.01,5.18,1.64,8.21,1.77
		c2.4,0.13,6.31,0,8.21-0.38v-4.67c-4.42-0.51-14.02-0.88-19.2-0.51c0-1.26,0-3.28,0-5.3c-0.25-2.15-0.51-4.42-0.76-5.43
		c4.42-1.01,11.49-1.77,16.67-1.77c4.55,0,10.23,0.38,14.52,1.39c-0.25,1.52-0.51,5.05-0.51,6.57l-2.9-2.53
		c-1.77-0.76-4.8-1.39-7.45-1.64c-2.53-0.25-5.68,0-7.7,0.13v4.55c3.41,0.51,13.13,1.01,19.32,1.01c-0.25,1.64-0.25,3.54-0.25,5.43
		c0,2.15,0.13,3.54,0.38,5.05C817.46,98.25,809.12,98.88,805.08,98.88z"/>
	<path d="M831.73,98.25c0.13-2.15,0.25-4.67,0.25-8.33c0-2.65-0.25-7.2-0.76-8.84l-3.41-3.28h15.53c-0.25,2.27-0.51,5.81-0.63,8.59
		c-0.13,3.91-0.13,5.3,0,8.59l4.42,3.41h-15.41V98.25z M836.65,76.28l-7.32-7.32h14.52L836.65,76.28z"/>
	<path d="M889.19,92.32c-0.25,4.04-0.25,9.22,0,12.5c-4.55,1.26-10.48,2.53-17.81,2.53c-7.07,0-16.29-1.14-17.55-7.32
		c4.42,2.78,9.6,3.28,15.15,3.28c3.66,0,6.82-0.63,9.72-1.52v-4.42c-2.4,0.63-6.06,1.26-9.98,1.26c-4.8,0-10.1-0.51-14.65-1.64
		c0.13-2.27,0.13-5.3-0.13-9.09c-0.13-3.28-0.76-6.82-1.14-8.71c5.18-1.01,12.5-2.02,19.45-2.02c6.69,0,13.64,0.76,18.44,1.89
		C890.07,81.71,889.57,86.89,889.19,92.32z M878.83,82.47c-1.39-0.76-4.29-1.52-6.95-1.64c-2.78-0.13-5.18,0.25-7.07,0.51v12
		c1.52,0.76,4.55,1.52,7.32,1.64c2.78,0,5.05-0.38,6.69-0.76V82.47z"/>
	<path d="M922.65,98.25V82.72c-1.52-0.76-3.41-1.14-5.81-1.14c-2.02,0-4.04,0.25-5.68,0.76v15.91h-15.03l4.55-3.41
		c0.13-1.77,0.13-4.04-0.25-7.32c-0.25-2.78-0.51-4.93-0.88-6.44l-3.54-3.28h15.15v1.26c2.4-0.76,6.95-1.52,10.86-1.52
		c5.05,0,9.35,0.51,12.63,1.52c-0.51,2.27-0.88,4.67-1.26,8.46c-0.25,3.16-0.25,6.57-0.25,7.32l4.55,3.41H922.65z"/>
</g>
</svg>
