<?xml version="1.0" encoding="utf-8"?>
<!-- Generator: Adobe Illustrator 25.0.0, SVG Export Plug-In . SVG Version: 6.00 Build 0)  -->
<svg version="1.1" xmlns="http://www.w3.org/2000/svg" xmlns:xlink="http://www.w3.org/1999/xlink" x="0px" y="0px"
	 viewBox="0 0 1920 1080" style="enable-background:new 0 0 1920 1080;" xml:space="preserve">
<style type="text/css">
	.st0{font-family:'Kallisto-Heavy';}
	.st1{font-size:8px;}
	.st2{fill:#003087;stroke:#000000;stroke-width:0.5;stroke-miterlimit:10;}
	.st3{fill:#7EB900;stroke:#000000;stroke-width:0.5;stroke-miterlimit:10;}
	.st4{fill:#0E7A0D;stroke:#000000;stroke-width:0.5;stroke-miterlimit:10;}
	.st5{stroke:#000000;stroke-width:0.5;stroke-miterlimit:10;}
	.st6{font-size:26.2013px;}
	.st7{fill:#FFFFFF;}
	.st8{font-size:18.2513px;}
	.st9{font-size:22.5476px;}
	.st10{font-size:19.1383px;}
	.st11{font-size:17.061px;}
	.st12{clip-path:url(#SVGID_2_);fill:#003087;}
	.st13{clip-path:url(#SVGID_2_);}
	.st14{clip-path:url(#SVGID_4_);fill:#003087;}
	.st15{clip-path:url(#SVGID_4_);fill:#FFFFFF;}
	.st16{clip-path:url(#SVGID_6_);}
	.st17{clip-path:url(#SVGID_8_);fill:#7EB900;}
	.st18{clip-path:url(#SVGID_10_);}
	.st19{clip-path:url(#SVGID_12_);}
	.st20{clip-path:url(#SVGID_12_);fill:#FFFFFF;}
	.st21{clip-path:url(#SVGID_14_);}
	.st22{clip-path:url(#SVGID_16_);fill:#0E7A0D;}
	.st23{clip-path:url(#SVGID_16_);fill:#FFFFFF;}
	.st24{clip-path:url(#SVGID_16_);fill:none;stroke:#FFFFFF;stroke-width:0.2084;stroke-miterlimit:10;}
	.st25{font-family:'MyriadPro-Regular';}
	.st26{font-size:15.6619px;}
	.st27{fill:none;stroke:#000000;stroke-miterlimit:10;}
	.st28{font-size:25.7773px;}
	.st29{fill:#0E7A0D;}
	.st30{font-size:19.052px;}
	.st31{fill:#7EB900;}
	.st32{font-size:17.4271px;}
	.st33{fill:#003087;}
	.st34{font-size:24px;}
	.st35{font-size:23.5271px;}
	.st36{font-size:26.2863px;}
	.st37{font-size:22.7225px;}
	.st38{font-size:25.8039px;}
	.st39{font-size:60px;}
	.st40{font-size:38.4074px;glyph-orientation-vertical:0;writing-mode:tb;}
	.st41{fill:#FCFCFC;}
	.st42{font-size:45.5884px;glyph-orientation-vertical:0;writing-mode:tb;}
	.st43{font-size:46.9123px;glyph-orientation-vertical:0;writing-mode:tb;}
	.st44{font-size:48.6449px;glyph-orientation-vertical:0;writing-mode:tb;}
	.st45{font-size:28.2603px;}
</style>
<g id="background">
	<text transform="matrix(1 0 0 1 1721.2256 1077.1934)" class="st0 st1">Copyright©Logan Smiley•All Rights Reserved</text>
</g>
<g id="lower_x5F_middle">
	<g id="graph_1_">
		<g>
			<g>
				<g>
					<g>
						<path class="st2" d="M937.7,659.9L762.5,753c-51.4-96.7-14.7-216.8,82-268.3c30.1-16,59.1-23.2,93.1-23.2V659.9z"/>
					</g>
				</g>
				<g>
					<g>
						<path class="st3" d="M937.7,659.9l116.6,160.5c-88.6,64.4-212.7,44.7-277.1-43.9c-5.2-7.2-10.5-15.6-14.7-23.5L937.7,659.9z"
							/>
					</g>
				</g>
				<g>
					<g>
						<path class="st4" d="M937.7,659.9l198.1,10.4c-3.3,62.1-31.2,113.5-81.5,150.1L937.7,659.9z"/>
					</g>
				</g>
				<g>
					<g>
						<path class="st5" d="M937.7,659.9V461.5c109.6,0,198.4,88.8,198.4,198.4c0,4.2-0.1,6.2-0.3,10.4L937.7,659.9z"/>
					</g>
				</g>
			</g>
			<g>
				<g>
				</g>
				<g>
				</g>
				<g>
				</g>
				<g>
				</g>
			</g>
		</g>
	</g>
	<g id="text_3_">
		<text transform="matrix(1 0 0 1 668.2969 961.0107)" class="st0 st6">Popularity based on international sales</text>
		<text transform="matrix(1 0 0 1 771.2583 625.5405)" class="st7 st0 st8">Playstation4</text>
		<text transform="matrix(0.735 0.5264 -0.5823 0.813 992.5925 691.9246)" class="st7 st0 st9">Xbox One</text>
		<text transform="matrix(0.946 0.3241 -0.3241 0.946 854.7825 768.3926)" class="st7 st0 st10">Xbox 360</text>
		<text transform="matrix(1.0082 0 0 1 959.9028 581.9834)" class="st7 st0 st11">Playstation 3</text>
	</g>
</g>
<g id="lower_x5F_right_1_">
	<g id="shapes_1_">
		<g id="psrec_1_">
			<g>
				<defs>
					<rect id="SVGID_1_" x="1722" y="868" width="116" height="65.7"/>
				</defs>
				<clipPath id="SVGID_2_">
					<use xlink:href="#SVGID_1_"  style="overflow:visible;"/>
				</clipPath>
				<polygon class="st12" points="1739,868 1737.5,876.5 1758,876.5 1755.9,868 				"/>
				<polyline class="st12" points="1803.3,876.9 1804.8,868.4 1821.7,868.4 1823.8,876.9 				"/>
				<g class="st13">
					<defs>
						<rect id="SVGID_3_" x="1722" y="868" width="116" height="65.7"/>
					</defs>
					<clipPath id="SVGID_4_">
						<use xlink:href="#SVGID_3_"  style="overflow:visible;"/>
					</clipPath>
					<path class="st14" d="M1756.6,907.1c-5.7,17.3-17.4,29.1-26.1,26.2c-8.7-2.9-11.1-19.3-5.4-36.6c5.7-17.3,17.4-29.1,26.1-26.2
						C1760,873.3,1762.4,889.7,1756.6,907.1"/>
					<path class="st14" d="M1835.9,897.2c4.6,17.3,1.3,33.2-7.4,35.5c-8.7,2.3-19.4-9.9-24-27.2c-4.6-17.3-1.3-33.2,7.4-35.5
						C1820.6,867.7,1831.4,879.8,1835.9,897.2"/>
					<rect x="1743.7" y="872.1" class="st14" width="77.2" height="29"/>
					<path class="st14" d="M1766.4,887.3c0,10.4-8.5,18.9-18.9,18.9c-10.4,0-18.9-8.5-18.9-18.9c0-10.4,8.5-18.9,18.9-18.9
						C1757.9,868.5,1766.4,876.9,1766.4,887.3"/>
					<path class="st14" d="M1832.4,887.3c0,10.4-8.5,18.9-18.9,18.9c-10.4,0-18.9-8.5-18.9-18.9s8.5-18.9,18.9-18.9
						C1823.9,868.5,1832.4,876.9,1832.4,887.3"/>
					<path class="st14" d="M1769.8,902.4c0,5.4-4.4,9.7-9.7,9.7c-5.4,0-9.7-4.4-9.7-9.7c0-5.4,4.4-9.7,9.7-9.7
						C1765.5,892.7,1769.8,897,1769.8,902.4"/>
					<path class="st14" d="M1811.4,902.5c0,5.4-6.8,9.7-9.7,9.7c-5.4,0-9.7-4.4-9.7-9.7c0-5.4,4.4-9.7,9.7-9.7
						C1807.1,892.8,1811.4,897.1,1811.4,902.5"/>
					<polygon class="st15" points="1745.6,878.8 1745.6,882.9 1747.7,885.6 1749.7,882.9 1749.7,878.8 					"/>
					<polygon class="st15" points="1749.5,895.7 1749.5,891.7 1747.5,889 1745.5,891.7 1745.5,895.7 					"/>
					<polygon class="st15" points="1739.5,889.4 1743.6,889.4 1746.3,887.4 1743.6,885.4 1739.5,885.4 					"/>
					<polygon class="st15" points="1755.5,885.4 1751.5,885.4 1748.7,887.4 1751.5,889.4 1755.5,889.4 					"/>
					<path class="st15" d="M1782.5,896.4c0,1.5-1.3,2.8-2.8,2.8c-1.5,0-2.8-1.3-2.8-2.8s1.3-2.8,2.8-2.8
						C1781.3,893.6,1782.5,894.9,1782.5,896.4"/>
					<path class="st15" d="M1828.3,888.9c0,2.3-1.8,4.1-4.1,4.1c-2.3,0-4.1-1.8-4.1-4.1c0-2.3,1.8-4.1,4.1-4.1
						C1826.5,884.8,1828.3,886.7,1828.3,888.9"/>
					<path class="st15" d="M1820.9,881.5c0,2.3-1.8,4.1-4.1,4.1c-2.3,0-4.1-1.8-4.1-4.1s1.8-4.1,4.1-4.1
						C1819,877.3,1820.9,879.2,1820.9,881.5"/>
					<path class="st15" d="M1813.6,889.5c0,2.3-1.8,4.1-4.1,4.1c-2.3,0-4.1-1.8-4.1-4.1s1.8-4.1,4.1-4.1
						C1811.7,885.4,1813.6,887.2,1813.6,889.5"/>
					<path class="st15" d="M1821.4,897c0,2.3-1.8,4.1-4.1,4.1c-2.3,0-4.1-1.8-4.1-4.1s1.8-4.1,4.1-4.1
						C1819.6,892.9,1821.4,894.7,1821.4,897"/>
					<path class="st15" d="M1801.8,876.1c0,1.9-1,3.5-2.3,3.5c-1.3,0-2.3-1.5-2.3-3.5s1-3.5,2.3-3.5
						C1800.8,872.7,1801.8,874.2,1801.8,876.1"/>
					<path class="st15" d="M1762.5,875.9c0,1.9-1,3.5-2.3,3.5c-1.3,0-2.3-1.5-2.3-3.5s1-3.5,2.3-3.5
						C1761.5,872.5,1762.5,874,1762.5,875.9"/>
				</g>
			</g>
		</g>
		<g id="xbox36_1_">
			<g>
				<defs>
					<rect id="SVGID_5_" x="1461" y="867" width="111.9" height="72.6"/>
				</defs>
				<clipPath id="SVGID_6_">
					<use xlink:href="#SVGID_5_"  style="overflow:visible;"/>
				</clipPath>
				<g class="st16">
					<defs>
						<rect id="SVGID_7_" x="1461" y="867" width="111.9" height="72.6"/>
					</defs>
					<clipPath id="SVGID_8_">
						<use xlink:href="#SVGID_7_"  style="overflow:visible;"/>
					</clipPath>
					<path class="st17" d="M1571.7,900.8c-3.7-19.4-15-33.5-25.3-31.6c-5,0.9-8.8,5.4-11,12l-35.7,0c-1.9-7.6-5.8-12.9-11.2-14
						c-10.3-2.2-21.9,11.7-26,31c-4.1,19.3,0.8,36.7,11.1,38.9c7.7,1.6,16.1-5.7,21.6-17.6l42.6,0c5.2,13,13.9,21.4,22,19.9
						C1570.1,937.5,1575.4,920.2,1571.7,900.8 M1481.5,902.1c-4.9,0-8.9-4-8.9-8.9s4-8.9,8.9-8.9c4.9,0,8.9,4,8.9,8.9
						S1486.4,902.1,1481.5,902.1 M1528.8,889.3c1.4,0,2.6,1.2,2.6,2.6s-1.2,2.6-2.6,2.6c-1.4,0-2.6-1.2-2.6-2.6
						C1526.2,890.4,1527.4,889.3,1528.8,889.3 M1517,886.8c2,0,3.7,0.8,5,2.2h-4.1l2.5,0.6l-3.6,3.2l-3.7-3.4l2.6-0.6h-3.5
						C1513.4,887.5,1515.1,886.8,1517,886.8 M1504.4,889.3c1.4,0,2.6,1.2,2.6,2.6c0,1.4-1.2,2.6-2.6,2.6c-1.4,0-2.6-1.2-2.6-2.6
						C1501.8,890.4,1503,889.3,1504.4,889.3 M1501.7,916.8c-3.7,0-6.8-3-6.8-6.8s3-6.8,6.8-6.8c3.7,0,6.8,3,6.8,6.8
						S1505.5,916.8,1501.7,916.8 M1510.2,893.5c0-1.7,0.6-3.2,1.6-4.4l0.5,0.1l3.6,4.3l-3.9,3.5l-0.7,0.2
						C1510.6,896.2,1510.2,894.9,1510.2,893.5 M1517,900.3c-2.2,0-4.2-1.1-5.4-2.7h1.7c0-0.2,0.1-0.3,0.2-0.5l-0.6-0.1l3.4-3
						l3.3,3.9h2.7C1521,899.3,1519.1,900.3,1517,900.3 M1522.5,897.5l-0.5-0.1l-4.7-4.3l4-3.6l1.1-0.2c0.9,1.2,1.5,2.6,1.5,4.3
						C1523.7,895,1523.3,896.4,1522.5,897.5 M1533,916.9c-3.7,0-6.8-3-6.8-6.8s3-6.8,6.8-6.8s6.8,3,6.8,6.8S1536.8,916.9,1533,916.9
						 M1542.1,897.8c-2.4,0-4.3-1.9-4.3-4.3s1.9-4.3,4.3-4.3c2.4,0,4.3,1.9,4.3,4.3S1544.5,897.8,1542.1,897.8 M1551.6,906.4
						c-2.4,0-4.3-1.9-4.3-4.3s1.9-4.3,4.3-4.3c2.4,0,4.3,1.9,4.3,4.3S1553.9,906.4,1551.6,906.4 M1551.6,891c-2.4,0-4.3-1.9-4.3-4.3
						c0-2.4,1.9-4.3,4.3-4.3s4.3,1.9,4.3,4.3C1555.8,889.1,1553.9,891,1551.6,891 M1560.3,897.8c-2.4,0-4.3-1.9-4.3-4.3
						s1.9-4.3,4.3-4.3s4.3,1.9,4.3,4.3S1562.7,897.8,1560.3,897.8"/>
				</g>
			</g>
		</g>
		<g id="ps_1_">
			<g>
				<defs>
					<rect id="SVGID_9_" x="1598.4" y="867.5" width="111.6" height="67.5"/>
				</defs>
				<clipPath id="SVGID_10_">
					<use xlink:href="#SVGID_9_"  style="overflow:visible;"/>
				</clipPath>
				<polyline class="st18" points="1613.2,875.7 1614.6,867.6 1630.8,867.6 1632.8,875.7 				"/>
				<polygon class="st18" points="1677.7,867.5 1676.3,875.6 1695.9,875.6 1693.9,867.5 				"/>
				<g class="st18">
					<defs>
						<rect id="SVGID_11_" x="1598.4" y="867.5" width="111.6" height="67.5"/>
					</defs>
					<clipPath id="SVGID_12_">
						<use xlink:href="#SVGID_11_"  style="overflow:visible;"/>
					</clipPath>
					<path class="st19" d="M1628.7,908.6c-5.5,16.5-16,27.9-23.5,25.4c-7.5-2.5-9.2-17.9-3.7-34.4s16-27.9,23.5-25.4
						C1632.5,876.8,1634.2,892.1,1628.7,908.6"/>
					<path class="st19" d="M1707.8,900.7c4.4,16.8,1.9,32.1-5.8,34.1c-7.6,2-17.4-10-21.9-26.8c-4.4-16.8-1.9-32.1,5.8-34.1
						C1693.6,871.9,1703.4,883.9,1707.8,900.7"/>
					<rect x="1626.9" y="877.8" class="st19" width="66.1" height="26.3"/>
					<path class="st19" d="M1641,890.9c0,10-8.1,18.1-18.1,18.1c-10,0-18.1-8.1-18.1-18.1s8.1-18.1,18.1-18.1
						C1632.9,872.9,1641,880.9,1641,890.9"/>
					<path class="st19" d="M1704.1,890.9c0,10-8.1,18.1-18.1,18.1c-10,0-18.1-8.1-18.1-18.1c0-10,8.1-18.1,18.1-18.1
						S1704.1,880.9,1704.1,890.9"/>
					<path class="st19" d="M1646.8,906.7c0,5.1-4.2,9.3-9.3,9.3c-5.1,0-9.3-4.2-9.3-9.3c0-5.1,4.2-9.3,9.3-9.3
						S1646.8,901.6,1646.8,906.7"/>
					<path class="st19" d="M1680.5,906.8c0,5.1-6.5,9.3-9.3,9.3c-5.1,0-9.3-4.2-9.3-9.3s4.2-9.3,9.3-9.3
						C1676.3,897.5,1680.5,901.7,1680.5,906.8"/>
					<polygon class="st20" points="1621.2,882.8 1621.2,886.6 1623.1,889.2 1625,886.6 1625,882.8 					"/>
					<polygon class="st20" points="1624.9,898.9 1624.9,895.1 1623,892.5 1621,895.1 1621,898.9 					"/>
					<polygon class="st20" points="1615.3,892.9 1619.2,892.9 1621.8,891 1619.2,889.1 1615.3,889.1 					"/>
					<polygon class="st20" points="1630.6,889.1 1626.7,889.1 1624.1,891 1626.7,892.9 1630.6,892.9 					"/>
					<path class="st20" d="M1657.5,897.5c0,2.2-1.8,4-4,4c-2.2,0-4-1.8-4-4c0-2.2,1.8-4,4-4C1655.7,893.5,1657.5,895.3,1657.5,897.5
						"/>
					<rect x="1637.5" y="884.9" class="st20" width="8" height="4.3"/>
					<polygon class="st20" points="1664.1,884.5 1664.1,889.6 1671.9,887 					"/>
					<path class="st20" d="M1700.2,892.4c0,2.2-1.8,3.9-3.9,3.9s-3.9-1.8-3.9-3.9c0-2.2,1.8-3.9,3.9-3.9S1700.2,890.3,1700.2,892.4"
						/>
					<path class="st20" d="M1693.1,885.3c0,2.2-1.8,3.9-3.9,3.9s-3.9-1.8-3.9-3.9s1.8-3.9,3.9-3.9S1693.1,883.1,1693.1,885.3"/>
					<path class="st20" d="M1686.1,893c0,2.2-1.8,3.9-3.9,3.9s-3.9-1.8-3.9-3.9s1.8-3.9,3.9-3.9S1686.1,890.8,1686.1,893"/>
					<path class="st20" d="M1693.6,900.1c0,2.2-1.8,3.9-3.9,3.9s-3.9-1.8-3.9-3.9s1.8-3.9,3.9-3.9S1693.6,897.9,1693.6,900.1"/>
				</g>
			</g>
		</g>
		<g id="xbox_1_">
			<g>
				<defs>
					<rect id="SVGID_13_" x="1312.5" y="864" width="131.5" height="78.5"/>
				</defs>
				<clipPath id="SVGID_14_">
					<use xlink:href="#SVGID_13_"  style="overflow:visible;"/>
				</clipPath>
				<g class="st21">
					<defs>
						<rect id="SVGID_15_" x="1312.5" y="864" width="131.5" height="78.5"/>
					</defs>
					<clipPath id="SVGID_16_">
						<use xlink:href="#SVGID_15_"  style="overflow:visible;"/>
					</clipPath>
					<path class="st22" d="M1441.2,899.2c-5.8-21-18.5-35.8-28.4-33c-2.7,0.7-4.8,2.6-6.5,5.5h-51.1c-1.4-3.5-3.6-6-6.5-7.1
						c-9.6-3.6-23.7,10-31.3,30.3c-7.7,20.4-6,39.8,3.6,43.4c7.7,2.9,18.3-5.3,26.1-19.2h61.6c6.5,15.4,16.7,25.2,25,23
						C1443.6,939.4,1447,920.2,1441.2,899.2"/>
					<path class="st23" d="M1387.2,880.5c0,4.2-3.4,7.6-7.6,7.6s-7.6-3.4-7.6-7.6s3.4-7.6,7.6-7.6S1387.2,876.3,1387.2,880.5"/>
					<path class="st23" d="M1370.1,891c0,1-0.8,1.9-1.9,1.9c-1,0-1.9-0.8-1.9-1.9s0.8-1.9,1.9-1.9
						C1369.3,889.2,1370.1,890,1370.1,891"/>
					<path class="st23" d="M1391.4,890.6c0,1-0.8,1.9-1.9,1.9s-1.9-0.8-1.9-1.9s0.8-1.9,1.9-1.9S1391.4,889.6,1391.4,890.6"/>
					<path class="st23" d="M1364.3,904.2c0,5.4-4.4,9.8-9.8,9.8c-5.4,0-9.8-4.4-9.8-9.8c0-5.4,4.4-9.8,9.8-9.8
						C1359.9,894.4,1364.3,898.8,1364.3,904.2"/>
					<path class="st23" d="M1351.2,884.6c0,5.4-4.4,9.8-9.8,9.8c-5.4,0-9.8-4.4-9.8-9.8s4.4-9.8,9.8-9.8
						C1346.8,874.8,1351.2,879.2,1351.2,884.6"/>
					<path class="st23" d="M1406.8,905.2c0,5.4-4.4,9.8-9.8,9.8c-5.4,0-9.8-4.4-9.8-9.8c0-5.4,4.4-9.8,9.8-9.8
						C1402.4,895.4,1406.8,899.8,1406.8,905.2"/>
					<polygon class="st22" points="1361.9,902.1 1356.4,902.1 1356.4,896.7 1352.8,896.7 1352.8,902.1 1347,902.1 1347,905.8 
						1352.8,905.8 1352.8,911.6 1356.4,911.6 1356.4,905.8 1361.9,905.8 					"/>
					<polygon class="st24" points="1361.9,902.1 1356.4,902.1 1356.4,896.7 1352.8,896.7 1352.8,902.1 1347,902.1 1347,905.8 
						1352.8,905.8 1352.8,911.6 1356.4,911.6 1356.4,905.8 1361.9,905.8 					"/>
					<path class="st23" d="M1427.3,885.3c0,2.1-1.7,3.9-3.9,3.9s-3.9-1.7-3.9-3.9s1.7-3.9,3.9-3.9S1427.3,883.2,1427.3,885.3"/>
					<path class="st23" d="M1434.5,892.8c0,2.1-1.7,3.9-3.9,3.9c-2.1,0-3.9-1.7-3.9-3.9c0-2.1,1.7-3.9,3.9-3.9
						S1434.5,890.7,1434.5,892.8"/>
					<path class="st23" d="M1427.9,901c0,2.1-1.7,3.9-3.9,3.9c-2.1,0-3.9-1.7-3.9-3.9s1.7-3.9,3.9-3.9
						C1426.2,897.1,1427.9,898.8,1427.9,901"/>
					<path class="st23" d="M1420.2,893c0,2.1-1.7,3.9-3.9,3.9c-2.1,0-3.9-1.7-3.9-3.9c0-2.1,1.7-3.9,3.9-3.9
						C1418.4,889.2,1420.2,890.9,1420.2,893"/>
					<polygon class="st22" points="1386.8,887 1382.4,887 1379.2,881.3 1375.9,885.8 1378.4,886.7 1373,886.7 1375.1,885.9 
						1378.9,880.7 1375.4,874.4 1373.1,873.5 1378.7,873.5 1376.2,874.5 1379.8,879.5 1383.2,874.7 1380.8,873.9 1386.4,873.9 
						1384,874.7 1380.2,880 1384.7,886.4 					"/>
				</g>
			</g>
		</g>
	</g>
	<g id="graph">
		<g>
			<g>
				<g>
					<text transform="matrix(1 0 0 1 1295.9785 795.2847)" class="st25 st26">0</text>
					<text transform="matrix(1 0 0 1 1343.6309 795.2847)" class="st25 st26">100</text>
					<text transform="matrix(1 0 0 1 1399.3184 795.2847)" class="st25 st26">200</text>
					<text transform="matrix(1 0 0 1 1455.0049 795.2847)" class="st25 st26">300</text>
					<text transform="matrix(1 0 0 1 1510.6914 795.2847)" class="st25 st26">400</text>
					<text transform="matrix(1 0 0 1 1566.3789 795.2847)" class="st25 st26">500</text>
					<text transform="matrix(1 0 0 1 1622.0654 795.2847)" class="st25 st26">600</text>
				</g>
				<line class="st27" x1="1300" y1="778.6" x2="1634.1" y2="778.6"/>
				<g>
					<g>
						<line class="st27" x1="1300" y1="778.6" x2="1303" y2="770.6"/>
						<line class="st27" x1="1355.7" y1="778.6" x2="1358.7" y2="770.6"/>
						<line class="st27" x1="1411.4" y1="778.6" x2="1414.4" y2="770.6"/>
						<line class="st27" x1="1467.1" y1="778.6" x2="1470.1" y2="770.6"/>
						<line class="st27" x1="1522.7" y1="778.6" x2="1525.7" y2="770.6"/>
						<line class="st27" x1="1578.4" y1="778.6" x2="1581.4" y2="770.6"/>
						<line class="st27" x1="1634.1" y1="778.6" x2="1634.1" y2="770.6"/>
					</g>
					<g>
					</g>
				</g>
			</g>
			<g>
				<line class="st27" x1="1303" y1="778.6" x2="1303" y2="459.3"/>
				<g>
					<g>
						<line class="st27" x1="1303" y1="618.9" x2="1311.3" y2="618.9"/>
					</g>
					<g>
					</g>
				</g>
			</g>
			<g>
				<g>
					<g>
						<rect x="1303" y="686" class="st4" width="146.5" height="57.5"/>
					</g>
				</g>
				<g>
					<g>
						<rect x="1303" y="622.1" class="st2" width="321.1" height="57.5"/>
					</g>
				</g>
				<g>
					<g>
						<rect x="1303" y="558.3" class="st3" width="54" height="57.5"/>
					</g>
				</g>
				<g>
					<g>
						<rect x="1303" y="494.5" class="st5" width="156.5" height="57.5"/>
					</g>
				</g>
			</g>
			<g>
				<g>
				</g>
				<g>
				</g>
				<g>
				</g>
				<g>
				</g>
			</g>
		</g>
	</g>
	<g id="text_2_">
		<text transform="matrix(1 0 0 1 1635 516.3198)"><tspan x="0" y="0" class="st0 st28">Exclusive</tspan><tspan x="0" y="30.9" class="st0 st28">Games </tspan><tspan x="0" y="61.9" class="st0 st28">Per Platform</tspan></text>
		<text transform="matrix(1 0 0 1 1328.8291 852.3818)" class="st29 st0 st30">Xbox One</text>
		<text transform="matrix(1 0 0 1 1473.0145 967.3611)" class="st31 st0 st10">Xbox 360</text>
		<text transform="matrix(1.0082 0 0 1 1593.9033 851.9111)" class="st0 st32">Playstation 3</text>
		<text transform="matrix(1 0 0 1 1713.2583 958.5405)" class="st33 st0 st8">Playstation4</text>
		<text transform="matrix(1 0 0 1 1302.0137 578.3618)"><tspan x="0" y="0" class="st7 st0 st10">Xbox</tspan><tspan x="0" y="23" class="st7 st0 st10"> 360</tspan></text>
		<text transform="matrix(1 0 0 1 1331.8291 735.3818)" class="st7 st0 st30">Xbox One</text>
		<text transform="matrix(1 0 0 1 1315.2583 669.5405)" class="st7 st0 st8">Playstation4</text>
		<text transform="matrix(1.0082 0 0 1 1316.9028 532.9834)" class="st7 st0 st11">Playstation 3</text>
	</g>
</g>
<g id="lower_x5F_left">
	<g id="bars">
		<line x1="71.8" y1="438.8" x2="71.8" y2="715.3"/>
		<rect x="71.8" y="641.1" width="430.2" height="49.5"/>
		<rect x="71.8" y="576.8" class="st31" width="416.1" height="49.5"/>
		<rect x="71.8" y="511.4" class="st29" width="214.8" height="49.5"/>
		<rect x="71.8" y="705.9" class="st33" width="505.2" height="49.5"/>
	</g>
	<g id="text">
		<text transform="matrix(1 0 0 1 70.4194 852.3545)" class="st0 st34">Sources</text>
		<text transform="matrix(1 0 0 1 257.1738 690.3745)" class="st7 st0 st35">87.4 Million Units</text>
		<text transform="matrix(1 0 0 1 255.4492 625.3188)" class="st7 st0 st36">84 Million Units</text>
		<text transform="matrix(1.0082 0 0 1 80.9028 656.9834)" class="st7 st0 st11">Playstation 3</text>
		<text transform="matrix(1 0 0 1 81.0137 592.3618)" class="st7 st0 st10">Xbox 360</text>
		<text transform="matrix(1 0 0 1 79.2583 720.5405)" class="st7 st0 st8">Playstation4</text>
		<text transform="matrix(1 0 0 1 82.8291 527.3818)" class="st7 st0 st30">Xbox One</text>
		<text transform="matrix(1 0 0 1 96.8833 560.585)" class="st7 st0 st37">46 Million Units</text>
		<text transform="matrix(1 0 0 1 255.3442 755.3232)" class="st7 st0 st38">106 Million Units</text>
		<text transform="matrix(1 0 0 1 80.2734 885.4365)" class="st0 st1">Gematsu. “List of Video Game Exclusives – Gematsu.” Gematsu, Gematsu, 2020, www.gematsu.com/exclusives. </text>
		<text transform="matrix(1 0 0 1 73.9746 992.522)"><tspan x="0" y="0" class="st25 st1">Sony Interactive Entertainment . “Sony Interactive Entertainment Inc.” PLAYSTATION™NETWORK MONTHLY ACTIVE USERS REACHES 103 MILLION, </tspan><tspan x="0" y="9.6" class="st25 st1">7 Jan. 2020, www.sie.com/en/corporate/release/2020/200107.html. </tspan></text>
		<text transform="matrix(1 0 0 1 73.6455 956.522)"><tspan x="0" y="0" class="st25 st1">Tassi, Paul. “Just How Badly Did The PS4 And Switch Outsell The Xbox One This Generation?” </tspan><tspan x="0" y="9.6" class="st25 st1">Forbes, Forbes Magazine, 5 May 2020, </tspan><tspan x="0" y="19.2" class="st25 st1">www.forbes.com/sites/paultassi/2020/05/05/just-how-badly-did-the-ps4-and-switch-outsell-the-xbox-one-this-generation/. </tspan></text>
		<text transform="matrix(1 0 0 1 73.8271 924.522)"><tspan x="0" y="0" class="st25 st1">Dornbush, Jonathon. “Update: Comparing the Price of Every Game Console, With Inflation.” IGN, IGN, 18 Sept. 2020, </tspan><tspan x="0" y="9.6" class="st25 st1">www.ign.com/articles/comparing-the-price-of-every-game-console-with-inflation. </tspan></text>
	</g>
</g>
<g id="upper_x5F_middle">
	<g id="title">
		<text transform="matrix(0.863 0 0 1 581.3887 129.6504)"><tspan x="0" y="0" class="st0 st39">Current Generation and </tspan><tspan x="0" y="72" class="st0 st39">Last Generation Console </tspan><tspan x="0" y="144" class="st0 st39">Sales of Playstation and </tspan><tspan x="0" y="216" class="st0 st39">Xbox</tspan></text>
	</g>
</g>
<g id="upper_x5F_left">
	<g id="shapes">
		<path class="st33" d="M489.7,134.9v5h-18.6v-1.5c0-2-1.6-3.5-3.5-3.5h-26.5c-2,0-3.5,1.6-3.5,3.5v278.6c0,2,1.6,3.5,3.5,3.5h26.5
			c2,0,3.5-1.6,3.5-3.5v-8.6h18.6v12.1H514V134.9H489.7z"/>
		<polygon class="st29" points="399.7,272.1 399.7,134.9 357.6,134.9 337.6,134.9 331.9,134.9 331.9,272.1 331.9,420.6 405.5,420.6 
			405.5,272.1 		"/>
		<path class="st31" d="M189,257V141c0-8-6.5-14.5-14.5-14.5h-46c-8,0-14.5,6.5-14.5,14.5v116c0,5,2.6,9.4,6.4,12v55.1
			c-3.9,2.4-6.4,6.6-6.4,11.4v74.6c0,7.4,6,13.4,13.4,13.4h48.2c7.4,0,13.4-6,13.4-13.4v-74.6c0-5.1-2.9-9.6-7.1-11.9v-54.3
			C186.2,267,189,262.3,189,257z"/>
		<circle class="st7" cx="368.7" cy="394.6" r="9.6"/>
		<circle class="st7" cx="151.5" cy="309.7" r="14.6"/>
		<path d="M283.6,398.4c8.1-25.8,13.6-73,13.6-126.9c0-75.8-10.7-138.2-24.6-146.9v-1.1h-22.9v0.5c-0.5-0.1-0.9-0.2-1.4-0.2
			c-15.4,0-27.9,66.2-27.9,147.9c0,54.3,5.5,101.7,13.7,127.5c-3.7,3.1-5.9,6.9-5.9,11c0,10.4,13.9,18.8,31.1,18.8
			c17.2,0,31.1-8.4,31.1-18.8C290.5,405.7,287.9,401.6,283.6,398.4z"/>
	</g>
</g>
<g id="upper_x5F_right">
	<g id="bars_1_">
		<rect x="1409.5" y="95.7" class="st29" width="69.2" height="300.5"/>
		<rect x="1603.5" y="121.1" class="st33" width="69.2" height="274.2"/>
		<rect x="1710.5" y="187.1" class="st31" width="69.2" height="208.2"/>
		<rect x="1504.5" y="98.1" width="69.2" height="296.2"/>
		<line class="st27" x1="1382.5" y1="395.7" x2="1825.5" y2="395.7"/>
	</g>
	<g id="text_1_">
		<text transform="matrix(1 0 0 1 1744.8821 196.8052)" class="st7 st0 st40">$299</text>
		<text transform="matrix(1 0 0 0.99 1537.719 114.5791)" class="st41 st0 st42">$499</text>
		<text transform="matrix(1 0 0 1 1638.5442 138.5103)" class="st7 st0 st43">$399</text>
		<text transform="matrix(1 0 0 1 1443.6204 110.7544)" class="st7 st0 st44">$499</text>
		<text transform="matrix(1 0 0 1 1382.9709 428.5913)" class="st0 st45">Console Launch Prices</text>
	</g>
</g>
</svg>
