<?xml version="1.0" encoding="utf-8"?>
<!-- Generator: Adobe Illustrator 24.3.0, SVG Export Plug-In . SVG Version: 6.00 Build 0)  -->
<svg version="1.1" xmlns="http://www.w3.org/2000/svg" xmlns:xlink="http://www.w3.org/1999/xlink" x="0px" y="0px"
	 viewBox="0 0 288 144" style="enable-background:new 0 0 288 144;" xml:space="preserve">
<style type="text/css">
	.st0{fill:#FFFFFF;stroke:#000000;stroke-miterlimit:10;}
	.st1{fill:#922D2B;stroke:#010101;stroke-miterlimit:10;}
	.st2{fill:#922D2B;stroke:#000000;stroke-miterlimit:10;}
	.st3{fill:#010101;stroke:#010101;stroke-miterlimit:10;}
	.st4{fill:#010101;}
	.st5{display:none;}
	.st6{display:inline;fill:#010101;}
	.st7{font-family:'TisaSansPro';}
	.st8{font-size:6.8571px;}
</style>
<g id="Reference">
</g>
<g id="Vector_Shapes">
	<g id="Boolean_Primitives">
		<path class="st0" d="M191.3,15.7H72.8c-3,0-5.4,2.4-5.4,5.4v51.2c0,3,2.4,5.4,5.4,5.4h118.5c3,0,5.4-2.4,5.4-5.4V21.1
			C196.8,18.1,194.3,15.7,191.3,15.7z"/>
		<polygon class="st1" points="143.3,58.9 143.3,51.1 155.6,51.1 155.6,44.6 143.3,44.6 143.3,40.4 155.6,40.4 155.6,33.9 
			143.3,33.9 135.6,33.9 135.6,40.4 135.6,44.6 135.6,51.1 135.6,65.4 135.8,65.4 143.3,65.4 155.8,65.4 155.8,58.9 		"/>
		<polygon class="st1" points="189.9,33.9 158.4,33.9 158.4,41.3 170.2,41.3 169.6,65.4 178.6,65.4 178,41.3 189.9,41.3 		"/>
		<path d="M73.9,65L73.9,65c-2,0-3.6-1.6-3.6-3.6v-24c0-2,1.6-3.6,3.6-3.6h0c2,0,3.6,1.6,3.6,3.6v24C77.5,63.4,75.9,65,73.9,65z"/>
		<path class="st1" d="M121,33.9v17.8l-9.9-16.3v-1.5h-0.8c-0.2,0-0.3,0-0.5,0l0,0h-7.6V65h8.9V46.6l9.9,14.9V65h8.9V33.9H121z"/>
		<path class="st2" d="M90.4,32.5c-4.8,0.1-8.8,4.3-8.7,9.2c0.1,3.6,2.3,6.7,5.5,8v13.9c0,1,1,1.8,2,1.4l4.9-1.9v-0.7L91,61.6V60
			l3.1-0.8v-0.9L91,57.6V56l3.1-0.8v-0.7L91,53.8v-1.6l3.1-0.8v-1.7c3.2-1.3,5.5-4.5,5.5-8.2C99.5,36.4,95.4,32.4,90.4,32.5z
			 M93.3,37c1,0,1.9,0.9,1.9,1.9s-0.9,1.9-1.9,1.9s-1.9-0.9-1.9-1.9S92.2,37,93.3,37z M87.1,37.2c1,0,1.9,0.9,1.9,1.9
			c0,1-0.9,1.9-1.9,1.9s-1.9-0.9-1.9-1.9C85.2,38,86,37.2,87.1,37.2z M89.8,47.3c-2.3-0.2-4.2-1.9-4.8-4.3l10.4-0.3
			C95,45.5,92.4,47.5,89.8,47.3z"/>
		<path class="st2" d="M194.1,24.7H70.2c-1.5,0-2.7-1.2-2.7-2.7v-3.6c0-1.5,1.2-2.7,2.7-2.7h123.9c1.5,0,2.7,1.2,2.7,2.7V22
			C196.8,23.5,195.6,24.7,194.1,24.7z"/>
		<path d="M89.8,66.4"/>
	</g>
	<g id="Irregular_Shape">
		<polyline class="st3" points="191.2,86.2 211.3,92.7 211.3,93 94.6,94 63.4,86.2 191.9,86.5 		"/>
	</g>
</g>
<g id="Vector_Type">
	<g id="Outlines">
		<g>
			<path class="st4" d="M66.3,106.1c0.8,0,1.1-0.3,1.1-0.8c0-1.3-2.6-0.7-2.6-2.4c0-0.8,0.6-1.3,1.6-1.3c0.5,0,0.9,0.1,1.2,0.3
				c0.1,0.2,0.2,0.5,0.1,0.7c-0.4-0.3-0.8-0.4-1.3-0.4c-0.6,0-1,0.3-1,0.7c0,1.2,2.6,0.7,2.6,2.4c0,1.1-0.8,1.5-1.8,1.5
				c-0.6,0-1.1-0.1-1.4-0.3c-0.1-0.2-0.2-0.5-0.1-0.7C65.2,106,65.8,106.1,66.3,106.1z"/>
			<path class="st4" d="M69.7,106.5c-0.1,0-0.2,0-0.3,0s-0.3,0-0.3,0v-3.2c0.1-0.1,0.3-0.1,0.5-0.1l0,0.5h0c0.2-0.3,0.5-0.6,1.2-0.6
				c0.5,0,0.9,0.1,1.1,0.6h0c0.1-0.3,0.5-0.6,1.2-0.6c0.6,0,1.2,0.2,1.2,1.3v2.1c-0.1,0-0.2,0-0.3,0c-0.2,0-0.3,0-0.3,0v-2
				c0-0.5-0.2-0.9-0.8-0.9c-0.5,0-0.8,0.2-0.9,0.5c0,0,0,0.2,0,0.3v2c-0.1,0-0.2,0-0.3,0c-0.2,0-0.3,0-0.3,0v-2
				c0-0.5-0.2-0.9-0.8-0.9c-0.5,0-0.8,0.3-0.9,0.5V106.5z"/>
			<path class="st4" d="M76.3,102.1c0,0.3-0.2,0.4-0.4,0.4c-0.3,0-0.4-0.1-0.4-0.4c0-0.2,0.2-0.4,0.4-0.4
				C76.1,101.7,76.3,101.8,76.3,102.1z M75.6,103.3c0.1,0,0.2,0,0.3,0s0.2,0,0.3,0v3.2c-0.1,0-0.2,0-0.3,0s-0.3,0-0.3,0V103.3z"/>
			<path class="st4" d="M78.1,106.7c-0.5,0-0.7-0.3-0.7-0.8v-4.2c0.1-0.1,0.4-0.1,0.6-0.1v4.2c0,0.3,0.1,0.4,0.3,0.4
				c0.2,0,0.3-0.1,0.4-0.1c0,0.2,0,0.4-0.1,0.6C78.5,106.6,78.4,106.7,78.1,106.7z"/>
			<path class="st4" d="M79.9,105.1c0,0.7,0.5,1.1,1.3,1.1c0.4,0,0.8-0.1,1.1-0.3c0,0.2-0.1,0.4-0.2,0.6c-0.2,0.1-0.6,0.2-1.1,0.2
				c-1.2,0-1.8-0.7-1.8-1.8c0-1.1,0.7-1.8,1.7-1.8c1,0,1.4,0.6,1.4,1.4c0,0.2,0,0.4-0.1,0.6H79.9z M81.7,104.6c0.1-0.5-0.1-1-0.8-1
				c-0.6,0-1,0.4-1,1H81.7z"/>
			<path class="st4" d="M84.6,106.3c0-0.3,0.1-0.6,0.2-0.8l0.8-2.2c0.1,0,0.1,0,0.3,0c0.2,0,0.3,0,0.4,0.1l-0.6,1.5
				c-0.3,0.7-0.6,1.5-0.9,2.1c-0.4,0.7-0.9,1.1-1.7,1.4c-0.2-0.1-0.3-0.3-0.3-0.5c0.7-0.2,1.1-0.6,1.4-1.1l-1.4-3.4
				c0.1,0,0.2-0.1,0.4-0.1c0.1,0,0.2,0,0.3,0l0.9,2.2C84.4,105.7,84.5,106,84.6,106.3L84.6,106.3z"/>
			<path class="st4" d="M89,106.5c-0.1,0-0.2,0-0.3,0c-0.2,0-0.2,0-0.3,0v-4.7c0.1,0,0.2,0,0.4,0c0.2,0,0.3,0,0.4,0l2,3.1
				c0.2,0.3,0.4,0.7,0.5,1h0v-4.1c0.1,0,0.2,0,0.3,0s0.2,0,0.3,0v4.7c-0.1,0-0.2,0-0.4,0c-0.2,0-0.3,0-0.4,0l-2.1-3.2
				c-0.2-0.3-0.3-0.6-0.4-1h0V106.5z"/>
			<path class="st4" d="M94,105.1c0,0.7,0.5,1.1,1.3,1.1c0.4,0,0.8-0.1,1.1-0.3c0,0.2-0.1,0.4-0.2,0.6c-0.2,0.1-0.6,0.2-1.1,0.2
				c-1.2,0-1.8-0.7-1.8-1.8c0-1.1,0.7-1.8,1.7-1.8c1,0,1.4,0.6,1.4,1.4c0,0.2,0,0.4-0.1,0.6H94z M95.9,104.6c0.1-0.5-0.1-1-0.8-1
				c-0.6,0-1,0.4-1,1H95.9z"/>
			<path class="st4" d="M97.6,103.2v-0.8c0.2-0.1,0.4-0.2,0.6-0.2v0.9h1.1c0,0.1,0,0.1,0,0.3s0,0.2,0,0.3h-1.1v1.8
				c0,0.4,0.1,0.6,0.5,0.6c0.2,0,0.5-0.1,0.7-0.2c0,0.2,0,0.5-0.2,0.6c-0.2,0.1-0.4,0.2-0.7,0.2c-0.7,0-1-0.3-1-1.1v-1.8h-0.5
				c0-0.2,0-0.4,0.1-0.5H97.6z"/>
			<path class="st4" d="M102.3,107.8c0,0-0.2,0-0.3,0s-0.3,0-0.3,0v-6.3c0.2-0.1,0.3-0.1,0.6-0.1V107.8z"/>
			<path class="st4" d="M106.8,102.3v4.2c-0.1,0-0.2,0-0.3,0c-0.2,0-0.3,0-0.3,0v-4.2h-1.6c0-0.1-0.1-0.2-0.1-0.3s0-0.2,0.1-0.3h3.8
				c0,0.1,0.1,0.2,0.1,0.3s0,0.2-0.1,0.3H106.8z"/>
			<path class="st4" d="M109.7,106.5c-0.1,0-0.2,0-0.3,0s-0.3,0-0.3,0v-4.9c0.1-0.1,0.4-0.1,0.6-0.1v1.2c0,0.4,0,0.7-0.1,0.9h0
				c0.2-0.3,0.5-0.6,1.2-0.6c0.6,0,1.2,0.2,1.2,1.3v2.1c-0.1,0-0.2,0-0.3,0s-0.3,0-0.3,0v-2c0-0.5-0.2-0.9-0.8-0.9
				c-0.5,0-0.8,0.3-1,0.5V106.5z"/>
			<path class="st4" d="M113.7,105.1c0,0.7,0.5,1.1,1.3,1.1c0.4,0,0.8-0.1,1.1-0.3c0,0.2-0.1,0.4-0.2,0.6c-0.2,0.1-0.6,0.2-1.1,0.2
				c-1.2,0-1.8-0.7-1.8-1.8c0-1.1,0.7-1.8,1.7-1.8c1,0,1.4,0.6,1.4,1.4c0,0.2,0,0.4-0.1,0.6H113.7z M115.5,104.6
				c0.1-0.5-0.1-1-0.8-1c-0.6,0-1,0.4-1,1H115.5z"/>
			<path class="st4" d="M118.6,101.8c0.1,0,0.2,0,0.3,0c0.2,0,0.3,0,0.3,0v2h0.6l1.6-2c0.1,0,0.2-0.1,0.4-0.1c0.2,0,0.3,0,0.4,0.1
				l-1.8,2.3l2,2.4c-0.1,0-0.2,0.1-0.4,0.1s-0.3,0-0.4-0.1l-1.7-2.1h-0.6v2.1c-0.1,0-0.2,0-0.3,0c-0.2,0-0.3,0-0.3,0V101.8z"/>
			<path class="st4" d="M123.4,105.1c0,0.7,0.5,1.1,1.3,1.1c0.4,0,0.8-0.1,1.1-0.3c0,0.2-0.1,0.4-0.2,0.6c-0.2,0.1-0.6,0.2-1.1,0.2
				c-1.2,0-1.8-0.7-1.8-1.8c0-1.1,0.7-1.8,1.7-1.8c1,0,1.4,0.6,1.4,1.4c0,0.2,0,0.4-0.1,0.6H123.4z M125.2,104.6
				c0.1-0.5-0.1-1-0.8-1c-0.6,0-1,0.4-1,1H125.2z"/>
			<path class="st4" d="M128.1,106.3c0-0.3,0.1-0.6,0.2-0.8l0.8-2.2c0.1,0,0.1,0,0.3,0c0.2,0,0.3,0,0.4,0.1l-0.6,1.5
				c-0.3,0.7-0.6,1.5-0.9,2.1c-0.4,0.7-0.9,1.1-1.7,1.4c-0.2-0.1-0.3-0.3-0.3-0.5c0.7-0.2,1.1-0.6,1.4-1.1l-1.4-3.4
				c0.1,0,0.2-0.1,0.4-0.1c0.1,0,0.2,0,0.3,0l0.9,2.2C127.9,105.7,128,106,128.1,106.3L128.1,106.3z"/>
			<path class="st4" d="M131.9,103.2v-0.8c0.2-0.1,0.4-0.2,0.6-0.2v0.9h1.1c0,0.1,0,0.1,0,0.3s0,0.2,0,0.3h-1.1v1.8
				c0,0.4,0.1,0.6,0.5,0.6c0.2,0,0.5-0.1,0.7-0.2c0,0.2,0,0.5-0.2,0.6c-0.2,0.1-0.4,0.2-0.7,0.2c-0.7,0-1-0.3-1-1.1v-1.8h-0.5
				c0-0.2,0-0.4,0.1-0.5H131.9z"/>
			<path class="st4" d="M137.5,104.8c0,1.2-0.6,1.8-1.7,1.8c-1.1,0-1.7-0.6-1.7-1.8c0-1.1,0.7-1.7,1.7-1.7
				C136.9,103.1,137.5,103.7,137.5,104.8z M135.8,106.2c0.7,0,1-0.5,1-1.3c0-0.8-0.4-1.2-1-1.2c-0.7,0-1,0.5-1,1.2
				C134.8,105.7,135.2,106.2,135.8,106.2z"/>
			<path class="st4" d="M141.2,106.1c0.8,0,1.1-0.3,1.1-0.8c0-1.3-2.6-0.7-2.6-2.4c0-0.8,0.6-1.3,1.6-1.3c0.5,0,0.9,0.1,1.2,0.3
				c0.1,0.2,0.2,0.5,0.1,0.7c-0.4-0.3-0.8-0.4-1.3-0.4c-0.6,0-1,0.3-1,0.7c0,1.2,2.6,0.7,2.6,2.4c0,1.1-0.8,1.5-1.8,1.5
				c-0.6,0-1.1-0.1-1.4-0.3c-0.1-0.2-0.2-0.5-0.1-0.7C140,106,140.7,106.1,141.2,106.1z"/>
			<path class="st4" d="M146.2,106.2c-0.1,0.2-0.4,0.5-1.2,0.5c-0.6,0-1.2-0.2-1.2-1.3v-2c0.2-0.1,0.4-0.1,0.6-0.1v2.1
				c0,0.6,0.2,0.9,0.8,0.9c0.5,0,0.8-0.2,0.9-0.4v-2.4c0.1,0,0.2,0,0.3,0c0.2,0,0.2,0,0.3,0v3.2c-0.1,0.1-0.3,0.1-0.5,0.1
				L146.2,106.2L146.2,106.2z"/>
			<path class="st4" d="M149.6,106.1c0.4,0,0.7-0.1,0.9-0.3c0,0.2-0.1,0.5-0.2,0.6c-0.2,0.1-0.6,0.2-1,0.2c-1.1,0-1.7-0.7-1.7-1.8
				c0-1.2,0.8-1.8,1.7-1.8c0.4,0,0.7,0.1,0.9,0.2c0.1,0.1,0.2,0.4,0.1,0.6c-0.3-0.2-0.6-0.2-0.9-0.2c-0.7,0-1.2,0.4-1.2,1.2
				C148.4,105.7,148.9,106.1,149.6,106.1z"/>
			<path class="st4" d="M153.1,106.1c0.4,0,0.7-0.1,0.9-0.3c0,0.2-0.1,0.5-0.2,0.6c-0.2,0.1-0.6,0.2-1,0.2c-1.1,0-1.7-0.7-1.7-1.8
				c0-1.2,0.8-1.8,1.7-1.8c0.4,0,0.7,0.1,0.9,0.2c0.1,0.1,0.2,0.4,0.1,0.6c-0.3-0.2-0.6-0.2-0.9-0.2c-0.7,0-1.2,0.4-1.2,1.2
				C151.8,105.7,152.3,106.1,153.1,106.1z"/>
			<path class="st4" d="M155.3,105.1c0,0.7,0.5,1.1,1.3,1.1c0.4,0,0.8-0.1,1.1-0.3c0,0.2-0.1,0.4-0.2,0.6c-0.2,0.1-0.6,0.2-1.1,0.2
				c-1.2,0-1.8-0.7-1.8-1.8c0-1.1,0.7-1.8,1.7-1.8c1,0,1.4,0.6,1.4,1.4c0,0.2,0,0.4-0.1,0.6H155.3z M157.1,104.6
				c0.1-0.5-0.1-1-0.8-1c-0.6,0-1,0.4-1,1H157.1z"/>
			<path class="st4" d="M159.6,106.2c0.5,0,0.7-0.2,0.7-0.5c0-0.8-1.8-0.5-1.8-1.6c0-0.6,0.4-1,1.2-1c0.3,0,0.7,0.1,0.9,0.2
				c0.1,0.1,0.1,0.4,0.1,0.6c-0.3-0.2-0.6-0.3-1-0.3c-0.4,0-0.6,0.2-0.6,0.4c0,0.7,1.8,0.4,1.8,1.6c0,0.8-0.6,1.1-1.4,1.1
				c-0.4,0-0.8-0.1-1-0.2c-0.1-0.2-0.1-0.5-0.1-0.6C158.7,106,159.2,106.2,159.6,106.2z"/>
			<path class="st4" d="M162.8,106.2c0.5,0,0.7-0.2,0.7-0.5c0-0.8-1.8-0.5-1.8-1.6c0-0.6,0.4-1,1.2-1c0.3,0,0.7,0.1,0.9,0.2
				c0.1,0.1,0.1,0.4,0.1,0.6c-0.3-0.2-0.6-0.3-1-0.3c-0.4,0-0.6,0.2-0.6,0.4c0,0.7,1.8,0.4,1.8,1.6c0,0.8-0.6,1.1-1.4,1.1
				c-0.4,0-0.8-0.1-1-0.2c-0.1-0.2-0.1-0.5-0.1-0.6C161.9,106,162.4,106.2,162.8,106.2z"/>
			<path class="st4" d="M165.3,103.2v-0.6c0-1,0.5-1.3,1.2-1.3c0.3,0,0.5,0.1,0.7,0.2c0.1,0.1,0.1,0.4,0.1,0.6
				c-0.2-0.2-0.4-0.2-0.7-0.2c-0.5,0-0.7,0.3-0.7,0.7v0.6h1c0,0.1,0,0.1,0,0.3s0,0.2,0,0.3h-1v2.7c-0.1,0-0.2,0-0.3,0
				c-0.2,0-0.3,0-0.3,0v-2.7h-0.5c0-0.2,0-0.4,0.1-0.5H165.3z"/>
			<path class="st4" d="M169.8,106.2c-0.1,0.2-0.4,0.5-1.2,0.5c-0.6,0-1.2-0.2-1.2-1.3v-2c0.2-0.1,0.4-0.1,0.6-0.1v2.1
				c0,0.6,0.2,0.9,0.8,0.9c0.5,0,0.8-0.2,0.9-0.4v-2.4c0.1,0,0.2,0,0.3,0c0.2,0,0.2,0,0.3,0v3.2c-0.1,0.1-0.3,0.1-0.5,0.1
				L169.8,106.2L169.8,106.2z"/>
			<path class="st4" d="M172.4,106.7c-0.5,0-0.7-0.3-0.7-0.8v-4.2c0.1-0.1,0.4-0.1,0.6-0.1v4.2c0,0.3,0.1,0.4,0.3,0.4
				c0.2,0,0.3-0.1,0.4-0.1c0,0.2,0,0.4-0.1,0.6C172.8,106.6,172.6,106.7,172.4,106.7z"/>
			<path class="st4" d="M175.9,106.5c-0.1,0-0.2,0-0.3,0s-0.2,0-0.3,0v-4.7c0.1,0,0.2,0,0.4,0c0.2,0,0.3,0,0.4,0l2,3.1
				c0.2,0.3,0.4,0.7,0.5,1h0v-4.1c0.1,0,0.2,0,0.3,0c0.2,0,0.2,0,0.3,0v4.7c-0.1,0-0.2,0-0.4,0c-0.2,0-0.3,0-0.4,0l-2.1-3.2
				c-0.2-0.3-0.3-0.6-0.4-1h0V106.5z"/>
			<path class="st4" d="M181,105.1c0,0.7,0.5,1.1,1.3,1.1c0.4,0,0.8-0.1,1.1-0.3c0,0.2-0.1,0.4-0.2,0.6c-0.2,0.1-0.6,0.2-1.1,0.2
				c-1.2,0-1.8-0.7-1.8-1.8c0-1.1,0.7-1.8,1.7-1.8c1,0,1.4,0.6,1.4,1.4c0,0.2,0,0.4-0.1,0.6H181z M182.8,104.6c0.1-0.5-0.1-1-0.8-1
				c-0.6,0-1,0.4-1,1H182.8z"/>
			<path class="st4" d="M184.5,103.2v-0.8c0.2-0.1,0.4-0.2,0.6-0.2v0.9h1.1c0,0.1,0,0.1,0,0.3s0,0.2,0,0.3h-1.1v1.8
				c0,0.4,0.1,0.6,0.5,0.6c0.2,0,0.5-0.1,0.7-0.2c0,0.2,0,0.5-0.2,0.6c-0.2,0.1-0.4,0.2-0.7,0.2c-0.7,0-1-0.3-1-1.1v-1.8H184
				c0-0.2,0-0.4,0.1-0.5H184.5z"/>
			<path class="st4" d="M190.5,106.1c0-0.3,0.1-0.6,0.2-0.9l0.6-2c0.1,0,0.1,0,0.3,0c0.2,0,0.3,0,0.3,0.1l-1,3.2
				c-0.2,0.1-0.5,0.1-0.8,0.1l-0.6-2.1c-0.1-0.3-0.1-0.6-0.2-0.8h0c0,0.3-0.1,0.6-0.2,0.9l-0.6,2c-0.2,0.1-0.4,0.1-0.7,0.1l-1-3.3
				c0.1,0,0.2-0.1,0.3-0.1c0.1,0,0.2,0,0.3,0l0.6,2c0.1,0.3,0.2,0.6,0.2,0.9h0c0-0.3,0.1-0.6,0.2-0.8l0.6-2c0.2-0.1,0.4-0.1,0.8-0.1
				l0.6,2.1C190.3,105.5,190.4,105.8,190.5,106.1L190.5,106.1z"/>
			<path class="st4" d="M195.6,104.8c0,1.2-0.6,1.8-1.7,1.8c-1.1,0-1.7-0.6-1.7-1.8c0-1.1,0.7-1.7,1.7-1.7
				C194.9,103.1,195.6,103.7,195.6,104.8z M193.9,106.2c0.7,0,1-0.5,1-1.3c0-0.8-0.4-1.2-1-1.2c-0.7,0-1,0.5-1,1.2
				C192.9,105.7,193.3,106.2,193.9,106.2z"/>
			<path class="st4" d="M198.1,103.1c0.2,0,0.3,0,0.4,0.1c0.1,0.1,0.1,0.2,0.1,0.4c0,0.1,0,0.2,0,0.3c-0.1-0.1-0.3-0.1-0.4-0.1
				c-0.4,0-0.8,0.3-0.9,0.8v2c-0.1,0-0.2,0-0.3,0c-0.2,0-0.3,0-0.3,0v-3.2c0.1-0.1,0.3-0.1,0.5-0.1l0.1,0.6h0
				C197.3,103.4,197.5,103.1,198.1,103.1z"/>
			<path class="st4" d="M200.4,104.5l1.1-1.3c0,0,0.2,0,0.3,0c0.2,0,0.4,0,0.4,0.1l-1.3,1.5c0.4,0.6,0.8,1.1,1.4,1.7
				c-0.1,0-0.2,0.1-0.4,0.1c-0.2,0-0.4,0-0.5-0.1c-0.4-0.5-0.8-0.9-1.2-1.5h-0.4v1.5c-0.1,0-0.2,0-0.3,0c-0.2,0-0.3,0-0.3,0v-4.9
				c0.1-0.1,0.4-0.1,0.6-0.1v3H200.4z"/>
			<path class="st4" d="M203.8,102.1c0,0.3-0.2,0.4-0.4,0.4c-0.3,0-0.4-0.1-0.4-0.4c0-0.2,0.2-0.4,0.4-0.4
				C203.7,101.7,203.8,101.8,203.8,102.1z M203.1,103.3c0.1,0,0.2,0,0.3,0c0.2,0,0.2,0,0.3,0v3.2c-0.1,0-0.2,0-0.3,0
				c-0.2,0-0.3,0-0.3,0V103.3z"/>
			<path class="st4" d="M205.6,106.5c-0.1,0-0.2,0-0.3,0c-0.2,0-0.3,0-0.3,0v-3.2c0.1-0.1,0.3-0.1,0.5-0.1l0,0.5h0
				c0.2-0.3,0.5-0.6,1.2-0.6c0.6,0,1.2,0.2,1.2,1.3v2.1c-0.1,0-0.2,0-0.3,0s-0.3,0-0.3,0v-2c0-0.5-0.2-0.9-0.8-0.9
				c-0.5,0-0.8,0.3-1,0.5V106.5z"/>
			<path class="st4" d="M209.8,105.5c-0.1,0.1-0.1,0.2-0.1,0.3c0,0.3,0.3,0.3,0.9,0.3c0.9,0,1.6,0.2,1.6,1c0,0.8-0.7,1.2-1.8,1.2
				c-1,0-1.7-0.3-1.7-1c0-0.5,0.3-0.7,0.6-0.8v0c-0.2-0.1-0.3-0.3-0.3-0.5c0-0.2,0.1-0.5,0.3-0.6v0c-0.2-0.2-0.4-0.5-0.4-1
				c0-0.8,0.6-1.2,1.4-1.2c0.3,0,0.5,0,0.7,0.1h1c0.1,0.1,0.1,0.3,0.1,0.5h-0.6v0c0.1,0.1,0.2,0.3,0.2,0.6c0,0.8-0.5,1.2-1.4,1.2
				C210.2,105.6,210,105.5,209.8,105.5z M209.8,106.6c-0.3,0.1-0.4,0.3-0.4,0.6c0,0.5,0.5,0.6,1.1,0.6c0.6,0,1.1-0.2,1.1-0.6
				c0-0.4-0.3-0.5-1.1-0.5C210.2,106.6,210,106.6,209.8,106.6z M210.3,105.1c0.5,0,0.8-0.3,0.8-0.7s-0.3-0.7-0.8-0.7
				c-0.5,0-0.8,0.3-0.8,0.7C209.5,104.8,209.8,105.1,210.3,105.1z"/>
		</g>
	</g>
	<g id="Original" class="st5">
		<text transform="matrix(1.0562 0 0 1 63.0176 106.6201)" class="st6 st7 st8">Smiley Net | The Key to Successful Networking</text>
	</g>
</g>
</svg>
